<svg xmlns="http://www.w3.org/2000/svg" xmlns:xlink="http://www.w3.org/1999/xlink" version="1.1" x="0px" y="0px" viewBox="0 0 100 100" enable-background="new 0 0 100 100" xml:space="preserve"><path d="M83.092,30.136c-6.576,0-11.908,5.331-11.908,11.908c0,1.164,0.175,2.286,0.486,3.35l-5.556,2.06  c-2.501-5.837-8.173-9.975-14.848-10.29v-7.07c6.187-0.428,11.077-5.57,11.077-11.866c0-6.576-5.331-11.908-11.908-11.908  c-6.576,0-11.908,5.331-11.908,11.908c0,6.296,4.89,11.438,11.077,11.866v7.072c-6.774,0.336-12.502,4.612-14.929,10.598  l-6.383-2.232c0.338-1.104,0.522-2.274,0.522-3.489c0-6.576-5.331-11.908-11.908-11.908C10.331,30.136,5,35.467,5,42.044  c0,6.576,5.331,11.908,11.908,11.908c4.774,0,8.88-2.816,10.779-6.872l6.443,2.253c-0.451,1.53-0.703,3.146-0.703,4.822  c0,5.261,2.388,9.961,6.136,13.085l-3.111,4.139c-1.863-1.209-4.081-1.919-6.468-1.919c-6.576,0-11.908,5.331-11.908,11.908  c0,6.576,5.331,11.908,11.908,11.908c6.576,0,11.908-5.331,11.908-11.908c0-3.592-1.598-6.805-4.113-8.988l3.11-4.138  c2.728,1.857,6.021,2.944,9.57,2.944c3.499,0,6.75-1.058,9.455-2.868l3.279,4.418c-2.547,2.184-4.167,5.419-4.167,9.037  c0,6.576,5.331,11.908,11.908,11.908c6.576,0,11.908-5.331,11.908-11.908c0-6.576-5.331-11.908-11.908-11.908  c-2.361,0-4.555,0.696-6.406,1.881l-3.278-4.417c3.809-3.123,6.24-7.864,6.24-13.174c0-1.793-0.281-3.519-0.794-5.142l5.558-2.061  c1.871,4.126,6.016,7.001,10.841,7.001C89.669,53.951,95,48.62,95,42.044C95,35.467,89.669,30.136,83.092,30.136z"></path></svg>