<svg xmlns="http://www.w3.org/2000/svg" xmlns:xlink="http://www.w3.org/1999/xlink" xmlns:ev="http://www.w3.org/2001/xml-events" version="1.1" baseProfile="full" width="480" height="1050"  viewBox="0 0 480 1050
" >
<style>svg {background-color: black;}</style>
<text x="250" text-anchor="middle" y="40" font-size="42px" fill="white" font-family="Roboto, sans-serif">IRC INDIEWEBCAMP</text>
<polyline stroke="white" stroke-width="3" fill="black" transform="matrix(1 0 0 -1 0 111)" points="0,0 0,2 5,1 10,4 15,23 20,18 25,38 30,41 35,101 40,44 45,14 50,4 55,9 60,2 65,14 70,15 75,12 80,4 85,6 90,2 95,5 100,6 105,12 110,11 115,4 120,35 125,24 130,14 135,4 140,4 145,3 150,3 155,7 160,2 165,9 170,0 175,1 180,1 185,5 190,11 195,5 200,2 205,3 210,4 215,18 220,14 225,3 230,11 235,6 240,3 245,21 250,14 255,14 260,9 265,0 270,2 275,8 280,0 285,6 290,6 295,22 300,4 305,0 310,0 315,0 320,1 325,1 330,0 335,3 340,0 345,0 350,9 355,0 360,1 365,0 370,20 375,6 380,1 385,0 390,1 395,0 400,0 405,0 410,0 415,0 420,0 425,1 430,0 435,4 440,2 445,0 450,1 455,0 460,0 465,0 470,0 475,3 480,0"/>

<polyline stroke="white" stroke-width="3" fill="black" transform="matrix(1 0 0 -1 0 121)" points="0,0 0,5 5,0 10,0 15,0 20,1 25,0 30,0 35,31 40,61 45,29 50,57 55,25 60,12 65,5 70,1 75,9 80,0 85,2 90,7 95,1 100,1 105,8 110,3 115,2 120,17 125,7 130,0 135,0 140,2 145,7 150,0 155,4 160,18 165,7 170,2 175,0 180,4 185,1 190,7 195,3 200,0 205,3 210,14 215,1 220,3 225,5 230,1 235,0 240,0 245,4 250,10 255,3 260,7 265,4 270,20 275,4 280,3 285,1 290,4 295,0 300,13 305,10 310,6 315,3 320,0 325,3 330,7 335,5 340,0 345,3 350,1 355,0 360,7 365,0 370,1 375,3 380,0 385,0 390,0 395,0 400,0 405,0 410,0 415,0 420,0 425,0 430,0 435,0 440,0 445,2 450,0 455,0 460,2 465,3 470,1 475,7 480,0"/>

<polyline stroke="white" stroke-width="3" fill="black" transform="matrix(1 0 0 -1 0 131)" points="0,0 0,1 5,3 10,1 15,0 20,0 25,2 30,1 35,3 40,1 45,5 50,12 55,0 60,3 65,0 70,1 75,0 80,2 85,2 90,0 95,0 100,0 105,0 110,0 115,0 120,1 125,2 130,0 135,0 140,1 145,5 150,4 155,3 160,1 165,1 170,0 175,1 180,1 185,5 190,1 195,6 200,1 205,2 210,1 215,3 220,4 225,5 230,6 235,30 240,33 245,34 250,23 255,4 260,7 265,28 270,13 275,6 280,9 285,4 290,6 295,21 300,23 305,20 310,10 315,1 320,10 325,0 330,0 335,0 340,0 345,2 350,1 355,0 360,2 365,0 370,0 375,2 380,1 385,0 390,0 395,0 400,1 405,1 410,0 415,0 420,2 425,0 430,0 435,1 440,1 445,0 450,1 455,0 460,0 465,0 470,0 475,1 480,0"/>

<polyline stroke="white" stroke-width="3" fill="black" transform="matrix(1 0 0 -1 0 141)" points="0,0 0,0 5,0 10,0 15,0 20,0 25,0 30,0 35,0 40,0 45,0 50,0 55,1 60,0 65,0 70,0 75,1 80,0 85,0 90,0 95,0 100,0 105,0 110,1 115,0 120,0 125,3 130,1 135,2 140,0 145,0 150,0 155,0 160,0 165,0 170,0 175,1 180,0 185,0 190,2 195,2 200,1 205,1 210,4 215,6 220,1 225,2 230,5 235,0 240,11 245,0 250,0 255,1 260,33 265,35 270,36 275,2 280,3 285,9 290,0 295,0 300,0 305,2 310,7 315,3 320,0 325,0 330,1 335,24 340,7 345,11 350,23 355,2 360,4 365,3 370,41 375,24 380,27 385,19 390,22 395,11 400,1 405,0 410,1 415,2 420,0 425,0 430,0 435,2 440,0 445,0 450,0 455,20 460,3 465,1 470,0 475,0 480,0"/>

<polyline stroke="white" stroke-width="3" fill="black" transform="matrix(1 0 0 -1 0 151)" points="0,0 0,0 5,0 10,0 15,0 20,0 25,2 30,0 35,1 40,0 45,3 50,0 55,0 60,1 65,0 70,1 75,1 80,0 85,1 90,0 95,0 100,0 105,0 110,0 115,0 120,0 125,1 130,0 135,1 140,1 145,7 150,25 155,6 160,22 165,12 170,9 175,2 180,1 185,14 190,0 195,3 200,9 205,3 210,1 215,7 220,9 225,3 230,6 235,1 240,0 245,1 250,1 255,5 260,5 265,8 270,20 275,31 280,60 285,3 290,0 295,21 300,14 305,33 310,64 315,33 320,31 325,41 330,43 335,60 340,0 345,1 350,0 355,1 360,1 365,22 370,33 375,2 380,0 385,0 390,11 395,9 400,1 405,7 410,1 415,8 420,8 425,10 430,3 435,1 440,2 445,2 450,6 455,0 460,2 465,1 470,0 475,0 480,0"/>

<polyline stroke="white" stroke-width="3" fill="black" transform="matrix(1 0 0 -1 0 161)" points="0,0 0,0 5,1 10,3 15,2 20,9 25,24 30,1 35,0 40,0 45,1 50,0 55,0 60,2 65,0 70,4 75,5 80,0 85,0 90,0 95,3 100,1 105,0 110,10 115,0 120,0 125,0 130,0 135,0 140,0 145,0 150,0 155,1 160,3 165,3 170,1 175,3 180,14 185,15 190,36 195,3 200,8 205,9 210,5 215,13 220,23 225,29 230,22 235,2 240,6 245,6 250,22 255,28 260,28 265,7 270,0 275,10 280,8 285,14 290,13 295,3 300,29 305,44 310,30 315,5 320,15 325,18 330,7 335,7 340,3 345,1 350,0 355,0 360,2 365,5 370,4 375,1 380,1 385,3 390,1 395,0 400,0 405,0 410,0 415,1 420,0 425,11 430,5 435,0 440,0 445,0 450,2 455,2 460,1 465,0 470,5 475,0 480,0"/>

<polyline stroke="white" stroke-width="3" fill="black" transform="matrix(1 0 0 -1 0 171)" points="0,0 0,0 5,0 10,0 15,0 20,0 25,0 30,0 35,0 40,0 45,0 50,1 55,0 60,0 65,1 70,0 75,0 80,0 85,0 90,0 95,0 100,0 105,0 110,0 115,0 120,0 125,0 130,0 135,0 140,0 145,0 150,0 155,1 160,1 165,0 170,3 175,0 180,1 185,1 190,5 195,17 200,22 205,7 210,50 215,26 220,16 225,13 230,1 235,0 240,0 245,15 250,14 255,22 260,17 265,0 270,8 275,2 280,5 285,0 290,0 295,0 300,0 305,0 310,0 315,6 320,10 325,0 330,5 335,14 340,30 345,23 350,1 355,1 360,3 365,0 370,0 375,0 380,0 385,0 390,0 395,0 400,1 405,0 410,0 415,3 420,1 425,8 430,31 435,50 440,35 445,35 450,15 455,3 460,2 465,0 470,2 475,6 480,0"/>

<polyline stroke="white" stroke-width="3" fill="black" transform="matrix(1 0 0 -1 0 181)" points="0,0 0,3 5,0 10,0 15,0 20,0 25,0 30,0 35,0 40,0 45,0 50,0 55,0 60,0 65,0 70,0 75,0 80,2 85,0 90,0 95,0 100,0 105,0 110,0 115,1 120,0 125,0 130,0 135,0 140,0 145,0 150,2 155,1 160,0 165,0 170,0 175,2 180,3 185,7 190,0 195,1 200,8 205,3 210,2 215,4 220,4 225,14 230,14 235,3 240,0 245,0 250,0 255,0 260,1 265,0 270,0 275,3 280,3 285,2 290,0 295,2 300,6 305,4 310,1 315,1 320,1 325,4 330,0 335,0 340,2 345,2 350,4 355,1 360,7 365,0 370,0 375,0 380,1 385,3 390,0 395,1 400,14 405,16 410,9 415,4 420,0 425,4 430,4 435,4 440,27 445,1 450,0 455,0 460,0 465,0 470,0 475,0 480,0"/>

<polyline stroke="white" stroke-width="3" fill="black" transform="matrix(1 0 0 -1 0 191)" points="0,0 0,2 5,18 10,0 15,0 20,0 25,1 30,0 35,0 40,0 45,0 50,0 55,0 60,0 65,0 70,0 75,0 80,0 85,0 90,2 95,0 100,0 105,0 110,0 115,0 120,0 125,0 130,0 135,0 140,0 145,1 150,6 155,5 160,1 165,1 170,0 175,0 180,1 185,0 190,0 195,0 200,22 205,15 210,0 215,0 220,0 225,15 230,27 235,11 240,28 245,4 250,54 255,66 260,96 265,114 270,77 275,56 280,4 285,0 290,16 295,0 300,0 305,1 310,0 315,2 320,3 325,1 330,19 335,7 340,8 345,1 350,26 355,16 360,11 365,13 370,10 375,9 380,6 385,0 390,0 395,0 400,0 405,0 410,2 415,16 420,0 425,9 430,1 435,17 440,0 445,0 450,0 455,0 460,0 465,0 470,0 475,0 480,0"/>

<polyline stroke="white" stroke-width="3" fill="black" transform="matrix(1 0 0 -1 0 201)" points="0,0 0,0 5,0 10,1 15,2 20,0 25,2 30,0 35,1 40,0 45,0 50,0 55,0 60,0 65,1 70,0 75,1 80,1 85,1 90,2 95,2 100,1 105,4 110,0 115,1 120,0 125,1 130,0 135,0 140,0 145,0 150,2 155,23 160,14 165,11 170,6 175,5 180,3 185,2 190,14 195,17 200,14 205,5 210,0 215,2 220,2 225,5 230,8 235,0 240,1 245,0 250,0 255,22 260,27 265,10 270,28 275,0 280,0 285,0 290,0 295,0 300,0 305,11 310,2 315,1 320,0 325,2 330,2 335,11 340,10 345,8 350,0 355,1 360,0 365,0 370,2 375,0 380,0 385,0 390,2 395,6 400,3 405,10 410,11 415,0 420,1 425,19 430,14 435,1 440,7 445,5 450,8 455,1 460,2 465,0 470,0 475,4 480,0"/>

<polyline stroke="white" stroke-width="3" fill="black" transform="matrix(1 0 0 -1 0 211)" points="0,0 0,0 5,0 10,0 15,0 20,0 25,0 30,0 35,1 40,2 45,0 50,0 55,0 60,0 65,0 70,0 75,0 80,0 85,0 90,1 95,0 100,0 105,0 110,0 115,0 120,0 125,0 130,3 135,0 140,1 145,7 150,7 155,2 160,0 165,0 170,1 175,1 180,4 185,3 190,16 195,5 200,10 205,3 210,10 215,2 220,2 225,1 230,10 235,9 240,9 245,3 250,4 255,14 260,6 265,17 270,8 275,16 280,4 285,10 290,10 295,0 300,32 305,37 310,14 315,12 320,14 325,20 330,21 335,3 340,1 345,10 350,0 355,3 360,1 365,3 370,23 375,8 380,4 385,27 390,23 395,4 400,9 405,18 410,6 415,0 420,0 425,15 430,19 435,10 440,0 445,0 450,0 455,0 460,0 465,3 470,0 475,0 480,0"/>

<polyline stroke="white" stroke-width="3" fill="black" transform="matrix(1 0 0 -1 0 221)" points="0,0 0,0 5,0 10,1 15,0 20,0 25,0 30,0 35,1 40,0 45,0 50,0 55,0 60,0 65,0 70,0 75,0 80,0 85,0 90,0 95,0 100,0 105,1 110,4 115,1 120,7 125,10 130,3 135,2 140,13 145,23 150,5 155,19 160,14 165,15 170,16 175,2 180,7 185,3 190,5 195,16 200,15 205,6 210,17 215,19 220,8 225,0 230,4 235,6 240,20 245,16 250,2 255,34 260,12 265,6 270,2 275,20 280,6 285,8 290,0 295,15 300,14 305,21 310,1 315,4 320,2 325,13 330,2 335,0 340,3 345,6 350,1 355,1 360,0 365,0 370,0 375,0 380,0 385,0 390,0 395,0 400,0 405,1 410,0 415,0 420,0 425,0 430,0 435,1 440,0 445,1 450,1 455,1 460,5 465,24 470,6 475,0 480,0"/>

<polyline stroke="white" stroke-width="3" fill="black" transform="matrix(1 0 0 -1 0 231)" points="0,0 0,0 5,0 10,1 15,1 20,2 25,0 30,2 35,0 40,0 45,0 50,0 55,0 60,0 65,0 70,0 75,0 80,0 85,0 90,2 95,0 100,0 105,2 110,0 115,0 120,0 125,0 130,0 135,0 140,1 145,1 150,3 155,17 160,5 165,0 170,2 175,3 180,22 185,11 190,0 195,3 200,3 205,0 210,5 215,42 220,51 225,40 230,13 235,18 240,0 245,8 250,6 255,13 260,3 265,1 270,0 275,0 280,1 285,0 290,0 295,7 300,1 305,1 310,2 315,2 320,21 325,36 330,24 335,21 340,7 345,0 350,1 355,1 360,1 365,6 370,2 375,1 380,1 385,0 390,2 395,3 400,9 405,10 410,2 415,3 420,1 425,4 430,1 435,6 440,0 445,3 450,4 455,5 460,3 465,0 470,2 475,0 480,0"/>

<polyline stroke="white" stroke-width="3" fill="black" transform="matrix(1 0 0 -1 0 241)" points="0,0 0,0 5,0 10,0 15,1 20,1 25,0 30,0 35,0 40,0 45,0 50,0 55,0 60,0 65,0 70,0 75,0 80,0 85,0 90,0 95,1 100,0 105,0 110,1 115,0 120,0 125,0 130,5 135,0 140,1 145,0 150,0 155,0 160,0 165,0 170,0 175,0 180,1 185,0 190,0 195,0 200,2 205,33 210,14 215,5 220,7 225,7 230,1 235,0 240,6 245,5 250,6 255,3 260,18 265,2 270,16 275,22 280,36 285,34 290,16 295,9 300,19 305,14 310,1 315,0 320,0 325,5 330,1 335,2 340,5 345,2 350,9 355,15 360,4 365,2 370,2 375,0 380,4 385,0 390,0 395,0 400,0 405,0 410,0 415,1 420,3 425,5 430,0 435,0 440,2 445,2 450,0 455,0 460,0 465,0 470,0 475,0 480,0"/>

<polyline stroke="white" stroke-width="3" fill="black" transform="matrix(1 0 0 -1 0 251)" points="0,0 0,0 5,4 10,1 15,3 20,0 25,0 30,1 35,1 40,0 45,0 50,0 55,0 60,0 65,0 70,0 75,0 80,0 85,0 90,0 95,0 100,0 105,0 110,0 115,0 120,0 125,0 130,0 135,0 140,0 145,0 150,0 155,0 160,0 165,0 170,0 175,0 180,0 185,6 190,2 195,9 200,2 205,1 210,0 215,4 220,0 225,0 230,0 235,0 240,0 245,4 250,2 255,9 260,1 265,0 270,4 275,18 280,22 285,8 290,6 295,16 300,4 305,2 310,0 315,0 320,0 325,0 330,0 335,0 340,0 345,0 350,2 355,2 360,6 365,2 370,1 375,2 380,0 385,0 390,0 395,0 400,0 405,0 410,0 415,0 420,0 425,0 430,1 435,0 440,1 445,0 450,8 455,5 460,3 465,0 470,0 475,0 480,0"/>

<polyline stroke="white" stroke-width="3" fill="black" transform="matrix(1 0 0 -1 0 261)" points="0,0 0,0 5,1 10,7 15,0 20,2 25,1 30,6 35,2 40,0 45,0 50,0 55,0 60,0 65,1 70,0 75,1 80,0 85,0 90,0 95,0 100,0 105,0 110,0 115,0 120,1 125,0 130,1 135,0 140,1 145,2 150,0 155,1 160,0 165,0 170,1 175,10 180,1 185,2 190,1 195,7 200,1 205,3 210,1 215,15 220,32 225,14 230,27 235,16 240,37 245,25 250,16 255,13 260,12 265,8 270,6 275,5 280,4 285,0 290,3 295,0 300,17 305,10 310,0 315,0 320,0 325,5 330,8 335,8 340,0 345,0 350,0 355,3 360,8 365,0 370,6 375,5 380,5 385,0 390,0 395,4 400,0 405,0 410,0 415,1 420,0 425,0 430,0 435,1 440,0 445,0 450,0 455,0 460,0 465,0 470,0 475,0 480,0"/>

<polyline stroke="white" stroke-width="3" fill="black" transform="matrix(1 0 0 -1 0 271)" points="0,0 0,1 5,6 10,4 15,0 20,1 25,0 30,0 35,0 40,0 45,0 50,2 55,2 60,0 65,0 70,0 75,0 80,3 85,0 90,0 95,0 100,1 105,0 110,0 115,0 120,0 125,0 130,0 135,0 140,0 145,12 150,22 155,14 160,24 165,26 170,17 175,5 180,11 185,9 190,16 195,32 200,4 205,6 210,1 215,4 220,4 225,0 230,10 235,17 240,3 245,3 250,2 255,6 260,18 265,29 270,6 275,8 280,24 285,17 290,9 295,0 300,6 305,4 310,23 315,37 320,4 325,2 330,18 335,10 340,4 345,15 350,9 355,8 360,20 365,46 370,31 375,13 380,29 385,7 390,4 395,2 400,0 405,0 410,1 415,0 420,1 425,2 430,2 435,0 440,1 445,0 450,5 455,0 460,0 465,0 470,0 475,0 480,0"/>

<polyline stroke="white" stroke-width="3" fill="black" transform="matrix(1 0 0 -1 0 281)" points="0,0 0,0 5,1 10,2 15,3 20,1 25,5 30,0 35,0 40,0 45,0 50,4 55,1 60,0 65,0 70,1 75,4 80,3 85,3 90,0 95,0 100,1 105,12 110,3 115,0 120,1 125,0 130,0 135,0 140,3 145,0 150,6 155,0 160,1 165,0 170,2 175,9 180,13 185,0 190,15 195,4 200,31 205,34 210,17 215,11 220,11 225,6 230,4 235,1 240,4 245,0 250,2 255,18 260,14 265,28 270,13 275,3 280,15 285,6 290,7 295,9 300,32 305,5 310,0 315,0 320,7 325,15 330,42 335,11 340,40 345,1 350,4 355,1 360,6 365,22 370,29 375,21 380,22 385,7 390,14 395,11 400,2 405,1 410,4 415,0 420,2 425,0 430,0 435,10 440,3 445,0 450,0 455,0 460,0 465,0 470,0 475,0 480,0"/>

<polyline stroke="white" stroke-width="3" fill="black" transform="matrix(1 0 0 -1 0 291)" points="0,0 0,0 5,1 10,0 15,0 20,0 25,0 30,1 35,0 40,0 45,0 50,1 55,0 60,2 65,8 70,0 75,0 80,1 85,0 90,0 95,0 100,1 105,0 110,0 115,0 120,0 125,0 130,0 135,1 140,0 145,0 150,11 155,1 160,1 165,2 170,5 175,6 180,0 185,3 190,40 195,5 200,5 205,2 210,14 215,7 220,20 225,27 230,7 235,46 240,19 245,0 250,0 255,0 260,2 265,3 270,10 275,2 280,0 285,0 290,0 295,0 300,5 305,3 310,2 315,3 320,7 325,5 330,0 335,0 340,0 345,0 350,0 355,0 360,0 365,0 370,0 375,1 380,1 385,2 390,3 395,4 400,7 405,4 410,2 415,4 420,9 425,4 430,0 435,8 440,0 445,1 450,1 455,6 460,3 465,0 470,1 475,0 480,0"/>

<polyline stroke="white" stroke-width="3" fill="black" transform="matrix(1 0 0 -1 0 301)" points="0,0 0,40 5,12 10,4 15,2 20,0 25,0 30,1 35,0 40,0 45,0 50,1 55,1 60,0 65,1 70,2 75,2 80,2 85,4 90,0 95,0 100,0 105,2 110,3 115,7 120,1 125,1 130,2 135,1 140,0 145,0 150,0 155,0 160,0 165,1 170,0 175,0 180,1 185,1 190,0 195,1 200,0 205,1 210,6 215,8 220,6 225,9 230,17 235,6 240,12 245,6 250,1 255,1 260,2 265,10 270,7 275,2 280,0 285,0 290,0 295,0 300,0 305,4 310,3 315,1 320,0 325,0 330,0 335,0 340,0 345,2 350,6 355,1 360,0 365,0 370,4 375,3 380,2 385,1 390,3 395,0 400,3 405,1 410,2 415,1 420,3 425,0 430,0 435,0 440,1 445,2 450,1 455,1 460,0 465,0 470,0 475,0 480,0"/>

<polyline stroke="white" stroke-width="3" fill="black" transform="matrix(1 0 0 -1 0 311)" points="0,0 0,8 5,0 10,6 15,7 20,10 25,4 30,2 35,2 40,9 45,6 50,10 55,2 60,1 65,1 70,9 75,1 80,1 85,0 90,2 95,5 100,2 105,3 110,3 115,3 120,0 125,0 130,0 135,1 140,5 145,0 150,35 155,67 160,57 165,50 170,68 175,47 180,32 185,13 190,1 195,15 200,2 205,16 210,33 215,24 220,9 225,4 230,1 235,7 240,4 245,3 250,0 255,2 260,0 265,0 270,1 275,0 280,2 285,0 290,1 295,1 300,3 305,0 310,0 315,0 320,12 325,7 330,12 335,4 340,4 345,0 350,0 355,0 360,0 365,0 370,0 375,0 380,0 385,0 390,1 395,0 400,0 405,1 410,1 415,0 420,0 425,3 430,2 435,0 440,0 445,0 450,0 455,1 460,0 465,0 470,1 475,0 480,0"/>

<polyline stroke="white" stroke-width="3" fill="black" transform="matrix(1 0 0 -1 0 321)" points="0,0 0,1 5,0 10,2 15,2 20,4 25,27 30,53 35,68 40,11 45,53 50,1 55,0 60,4 65,8 70,8 75,8 80,0 85,0 90,2 95,5 100,11 105,10 110,21 115,8 120,5 125,12 130,4 135,2 140,16 145,20 150,4 155,13 160,1 165,4 170,4 175,1 180,6 185,1 190,0 195,3 200,4 205,4 210,1 215,0 220,2 225,0 230,0 235,0 240,3 245,20 250,6 255,8 260,32 265,19 270,6 275,10 280,2 285,1 290,0 295,0 300,0 305,2 310,11 315,0 320,0 325,0 330,0 335,1 340,0 345,0 350,0 355,1 360,1 365,0 370,0 375,0 380,0 385,0 390,0 395,0 400,0 405,0 410,0 415,0 420,0 425,0 430,0 435,0 440,0 445,0 450,0 455,10 460,3 465,5 470,11 475,14 480,0"/>

<polyline stroke="white" stroke-width="3" fill="black" transform="matrix(1 0 0 -1 0 331)" points="0,0 0,2 5,0 10,7 15,0 20,0 25,5 30,0 35,0 40,0 45,0 50,7 55,3 60,1 65,9 70,1 75,0 80,0 85,0 90,2 95,0 100,7 105,0 110,0 115,0 120,3 125,4 130,0 135,0 140,0 145,0 150,0 155,28 160,17 165,3 170,7 175,8 180,4 185,5 190,1 195,0 200,2 205,0 210,0 215,1 220,0 225,0 230,3 235,0 240,1 245,0 250,4 255,5 260,0 265,2 270,1 275,0 280,0 285,0 290,0 295,0 300,0 305,0 310,3 315,6 320,0 325,1 330,12 335,0 340,0 345,0 350,0 355,10 360,20 365,6 370,0 375,12 380,3 385,9 390,10 395,7 400,0 405,0 410,1 415,0 420,0 425,0 430,0 435,0 440,1 445,0 450,0 455,0 460,0 465,0 470,0 475,2 480,0"/>

<polyline stroke="white" stroke-width="3" fill="black" transform="matrix(1 0 0 -1 0 341)" points="0,0 0,0 5,0 10,0 15,0 20,4 25,1 30,1 35,0 40,2 45,4 50,0 55,8 60,1 65,0 70,0 75,1 80,0 85,0 90,1 95,0 100,0 105,0 110,0 115,0 120,0 125,1 130,0 135,4 140,5 145,2 150,4 155,5 160,4 165,0 170,0 175,6 180,6 185,34 190,3 195,0 200,0 205,3 210,2 215,3 220,12 225,6 230,0 235,1 240,6 245,1 250,4 255,0 260,0 265,0 270,2 275,0 280,2 285,0 290,3 295,0 300,0 305,0 310,1 315,2 320,1 325,0 330,1 335,0 340,0 345,0 350,0 355,0 360,0 365,0 370,0 375,0 380,0 385,0 390,1 395,0 400,0 405,2 410,13 415,2 420,12 425,13 430,2 435,0 440,0 445,0 450,0 455,3 460,0 465,0 470,0 475,0 480,0"/>

<polyline stroke="white" stroke-width="3" fill="black" transform="matrix(1 0 0 -1 0 351)" points="0,0 0,1 5,0 10,0 15,2 20,0 25,0 30,0 35,0 40,0 45,0 50,1 55,1 60,0 65,4 70,1 75,2 80,0 85,0 90,0 95,0 100,0 105,11 110,14 115,21 120,1 125,4 130,1 135,0 140,0 145,1 150,0 155,0 160,0 165,0 170,0 175,2 180,6 185,0 190,8 195,15 200,23 205,7 210,27 215,19 220,0 225,42 230,14 235,20 240,13 245,43 250,8 255,0 260,6 265,0 270,1 275,19 280,3 285,15 290,9 295,19 300,1 305,0 310,2 315,4 320,11 325,7 330,0 335,0 340,1 345,0 350,0 355,1 360,0 365,0 370,0 375,2 380,2 385,3 390,7 395,0 400,0 405,0 410,0 415,1 420,13 425,0 430,0 435,0 440,0 445,0 450,0 455,1 460,0 465,1 470,0 475,0 480,0"/>

<polyline stroke="white" stroke-width="3" fill="black" transform="matrix(1 0 0 -1 0 361)" points="0,0 0,50 5,10 10,0 15,0 20,0 25,0 30,0 35,0 40,0 45,0 50,0 55,0 60,0 65,0 70,0 75,0 80,0 85,0 90,0 95,0 100,0 105,2 110,0 115,0 120,0 125,1 130,1 135,16 140,0 145,0 150,1 155,1 160,2 165,0 170,1 175,13 180,14 185,4 190,8 195,15 200,4 205,16 210,14 215,25 220,34 225,36 230,9 235,12 240,16 245,15 250,44 255,35 260,2 265,0 270,0 275,0 280,0 285,0 290,0 295,0 300,1 305,2 310,1 315,4 320,2 325,0 330,0 335,0 340,0 345,0 350,81 355,0 360,0 365,0 370,0 375,0 380,0 385,0 390,1 395,0 400,0 405,0 410,0 415,0 420,0 425,0 430,0 435,0 440,0 445,0 450,0 455,2 460,1 465,0 470,0 475,0 480,0"/>

<polyline stroke="white" stroke-width="3" fill="black" transform="matrix(1 0 0 -1 0 371)" points="0,0 0,0 5,5 10,1 15,0 20,0 25,0 30,0 35,0 40,3 45,2 50,0 55,0 60,2 65,3 70,0 75,0 80,0 85,0 90,2 95,2 100,0 105,1 110,0 115,0 120,2 125,0 130,0 135,0 140,1 145,0 150,0 155,0 160,0 165,3 170,0 175,7 180,32 185,49 190,38 195,45 200,34 205,44 210,36 215,8 220,12 225,28 230,21 235,18 240,21 245,4 250,4 255,57 260,10 265,2 270,3 275,27 280,31 285,36 290,21 295,9 300,4 305,10 310,9 315,2 320,9 325,12 330,3 335,0 340,1 345,1 350,0 355,0 360,0 365,0 370,2 375,1 380,0 385,5 390,2 395,0 400,3 405,0 410,4 415,0 420,4 425,1 430,10 435,2 440,4 445,12 450,37 455,28 460,29 465,27 470,48 475,36 480,0"/>

<polyline stroke="white" stroke-width="3" fill="black" transform="matrix(1 0 0 -1 0 381)" points="0,0 0,0 5,0 10,0 15,7 20,0 25,0 30,0 35,0 40,0 45,0 50,0 55,0 60,0 65,0 70,0 75,0 80,0 85,0 90,0 95,0 100,0 105,0 110,0 115,0 120,1 125,0 130,0 135,0 140,0 145,0 150,0 155,0 160,0 165,0 170,0 175,0 180,0 185,0 190,2 195,3 200,1 205,7 210,1 215,2 220,0 225,0 230,0 235,0 240,0 245,0 250,0 255,0 260,1 265,0 270,0 275,0 280,0 285,0 290,0 295,0 300,14 305,0 310,0 315,4 320,20 325,11 330,16 335,20 340,12 345,12 350,4 355,35 360,10 365,4 370,65 375,12 380,9 385,10 390,2 395,18 400,1 405,4 410,1 415,4 420,3 425,0 430,0 435,0 440,3 445,5 450,9 455,19 460,5 465,2 470,3 475,1 480,0"/>

<polyline stroke="white" stroke-width="3" fill="black" transform="matrix(1 0 0 -1 0 391)" points="0,0 0,0 5,0 10,0 15,0 20,0 25,0 30,0 35,0 40,0 45,0 50,0 55,0 60,0 65,0 70,0 75,0 80,0 85,0 90,0 95,0 100,0 105,0 110,0 115,0 120,0 125,0 130,0 135,0 140,0 145,0 150,0 155,0 160,0 165,7 170,0 175,2 180,9 185,1 190,2 195,2 200,3 205,4 210,19 215,44 220,2 225,0 230,0 235,0 240,27 245,13 250,9 255,0 260,1 265,2 270,3 275,24 280,34 285,24 290,23 295,3 300,10 305,5 310,15 315,16 320,0 325,4 330,4 335,9 340,4 345,13 350,12 355,0 360,0 365,0 370,0 375,2 380,0 385,0 390,6 395,0 400,2 405,7 410,4 415,1 420,0 425,0 430,0 435,0 440,0 445,0 450,0 455,9 460,0 465,0 470,9 475,0 480,0"/>

<polyline stroke="white" stroke-width="3" fill="black" transform="matrix(1 0 0 -1 0 401)" points="0,0 0,1 5,0 10,0 15,0 20,0 25,0 30,8 35,0 40,0 45,0 50,5 55,9 60,2 65,0 70,3 75,3 80,5 85,2 90,1 95,0 100,0 105,0 110,0 115,0 120,0 125,0 130,0 135,0 140,21 145,37 150,5 155,0 160,0 165,0 170,0 175,3 180,0 185,0 190,0 195,0 200,0 205,2 210,7 215,12 220,26 225,33 230,9 235,19 240,25 245,3 250,3 255,15 260,0 265,3 270,29 275,17 280,25 285,31 290,23 295,5 300,44 305,9 310,9 315,25 320,26 325,29 330,8 335,0 340,0 345,6 350,0 355,0 360,0 365,2 370,2 375,10 380,1 385,0 390,1 395,1 400,0 405,0 410,0 415,0 420,1 425,0 430,0 435,0 440,0 445,0 450,0 455,0 460,0 465,0 470,0 475,0 480,0"/>

<polyline stroke="white" stroke-width="3" fill="black" transform="matrix(1 0 0 -1 0 411)" points="0,0 0,2 5,0 10,0 15,0 20,0 25,0 30,0 35,0 40,0 45,0 50,0 55,1 60,0 65,0 70,0 75,0 80,0 85,0 90,0 95,0 100,0 105,0 110,0 115,0 120,3 125,0 130,4 135,0 140,0 145,0 150,0 155,0 160,0 165,3 170,0 175,2 180,4 185,14 190,10 195,8 200,1 205,0 210,1 215,15 220,0 225,6 230,23 235,20 240,8 245,21 250,23 255,15 260,2 265,18 270,21 275,10 280,22 285,9 290,16 295,8 300,3 305,2 310,0 315,1 320,8 325,4 330,2 335,0 340,1 345,0 350,0 355,1 360,0 365,1 370,0 375,0 380,0 385,0 390,0 395,0 400,0 405,0 410,0 415,0 420,0 425,0 430,2 435,4 440,2 445,0 450,1 455,0 460,0 465,0 470,0 475,0 480,0"/>

<polyline stroke="white" stroke-width="3" fill="black" transform="matrix(1 0 0 -1 0 421)" points="0,0 0,1 5,0 10,1 15,0 20,0 25,1 30,0 35,0 40,0 45,0 50,0 55,0 60,0 65,0 70,0 75,0 80,0 85,0 90,0 95,0 100,0 105,0 110,0 115,0 120,0 125,0 130,0 135,0 140,2 145,0 150,0 155,0 160,0 165,1 170,0 175,2 180,35 185,38 190,35 195,22 200,15 205,10 210,40 215,34 220,30 225,30 230,24 235,12 240,23 245,39 250,21 255,14 260,26 265,55 270,38 275,28 280,29 285,37 290,6 295,3 300,5 305,38 310,15 315,15 320,15 325,0 330,0 335,5 340,3 345,1 350,0 355,1 360,0 365,0 370,0 375,4 380,3 385,14 390,26 395,18 400,14 405,12 410,3 415,8 420,0 425,1 430,0 435,0 440,5 445,7 450,2 455,7 460,1 465,2 470,5 475,0 480,0"/>

<polyline stroke="white" stroke-width="3" fill="black" transform="matrix(1 0 0 -1 0 431)" points="0,0 0,0 5,0 10,0 15,1 20,0 25,0 30,1 35,2 40,2 45,0 50,0 55,0 60,1 65,0 70,0 75,0 80,0 85,1 90,0 95,0 100,0 105,0 110,5 115,1 120,2 125,0 130,0 135,0 140,0 145,0 150,5 155,0 160,0 165,9 170,15 175,14 180,8 185,3 190,10 195,19 200,19 205,0 210,0 215,4 220,9 225,18 230,24 235,5 240,7 245,1 250,5 255,1 260,8 265,0 270,3 275,28 280,28 285,2 290,0 295,17 300,2 305,0 310,27 315,2 320,5 325,0 330,0 335,4 340,4 345,3 350,0 355,2 360,17 365,23 370,7 375,2 380,24 385,20 390,1 395,3 400,0 405,0 410,0 415,0 420,2 425,2 430,0 435,0 440,0 445,0 450,0 455,0 460,0 465,0 470,0 475,0 480,0"/>

<polyline stroke="white" stroke-width="3" fill="black" transform="matrix(1 0 0 -1 0 441)" points="0,0 0,0 5,1 10,1 15,8 20,1 25,0 30,1 35,2 40,5 45,0 50,1 55,0 60,2 65,4 70,0 75,0 80,0 85,1 90,2 95,0 100,1 105,0 110,1 115,0 120,1 125,0 130,9 135,0 140,1 145,7 150,5 155,15 160,15 165,27 170,21 175,17 180,28 185,0 190,0 195,1 200,0 205,18 210,6 215,5 220,10 225,11 230,10 235,6 240,8 245,11 250,10 255,31 260,12 265,5 270,25 275,7 280,14 285,24 290,2 295,0 300,1 305,3 310,7 315,0 320,12 325,26 330,15 335,26 340,7 345,8 350,22 355,2 360,20 365,1 370,0 375,0 380,1 385,0 390,0 395,0 400,1 405,2 410,0 415,7 420,0 425,0 430,0 435,0 440,0 445,0 450,0 455,0 460,8 465,1 470,0 475,0 480,0"/>

<polyline stroke="white" stroke-width="3" fill="black" transform="matrix(1 0 0 -1 0 451)" points="0,0 0,1 5,2 10,1 15,2 20,0 25,0 30,3 35,0 40,2 45,0 50,0 55,1 60,0 65,0 70,1 75,0 80,0 85,0 90,0 95,0 100,0 105,0 110,0 115,2 120,0 125,2 130,0 135,0 140,1 145,0 150,1 155,0 160,1 165,0 170,2 175,6 180,30 185,34 190,15 195,16 200,42 205,19 210,3 215,0 220,1 225,0 230,0 235,0 240,1 245,4 250,4 255,1 260,2 265,0 270,2 275,0 280,29 285,2 290,0 295,6 300,34 305,44 310,34 315,18 320,36 325,31 330,23 335,12 340,11 345,1 350,3 355,5 360,6 365,4 370,1 375,0 380,0 385,0 390,0 395,0 400,0 405,2 410,3 415,0 420,13 425,2 430,0 435,0 440,0 445,2 450,1 455,0 460,2 465,1 470,7 475,2 480,0"/>

<polyline stroke="white" stroke-width="3" fill="black" transform="matrix(1 0 0 -1 0 461)" points="0,0 0,0 5,0 10,0 15,0 20,0 25,0 30,0 35,0 40,0 45,0 50,0 55,0 60,0 65,0 70,0 75,0 80,0 85,1 90,13 95,22 100,27 105,3 110,0 115,4 120,3 125,0 130,2 135,1 140,0 145,0 150,0 155,0 160,0 165,0 170,0 175,5 180,4 185,0 190,7 195,6 200,17 205,14 210,28 215,34 220,29 225,0 230,12 235,0 240,32 245,17 250,0 255,12 260,0 265,1 270,0 275,8 280,26 285,29 290,3 295,0 300,0 305,0 310,2 315,0 320,1 325,0 330,0 335,0 340,0 345,0 350,0 355,0 360,0 365,19 370,6 375,6 380,3 385,1 390,5 395,1 400,0 405,0 410,0 415,1 420,0 425,7 430,0 435,0 440,1 445,1 450,1 455,0 460,1 465,2 470,2 475,0 480,0"/>

<polyline stroke="white" stroke-width="3" fill="black" transform="matrix(1 0 0 -1 0 471)" points="0,0 0,0 5,3 10,0 15,1 20,0 25,0 30,0 35,0 40,0 45,0 50,2 55,0 60,0 65,0 70,0 75,0 80,0 85,0 90,0 95,0 100,0 105,0 110,1 115,0 120,0 125,2 130,0 135,1 140,0 145,0 150,0 155,0 160,0 165,2 170,0 175,1 180,8 185,12 190,1 195,0 200,23 205,20 210,0 215,0 220,0 225,1 230,11 235,15 240,0 245,0 250,10 255,17 260,6 265,1 270,12 275,21 280,20 285,21 290,12 295,4 300,0 305,4 310,3 315,0 320,0 325,0 330,3 335,0 340,0 345,1 350,9 355,1 360,5 365,0 370,2 375,0 380,0 385,0 390,0 395,0 400,0 405,0 410,0 415,0 420,0 425,0 430,0 435,1 440,0 445,0 450,0 455,0 460,0 465,0 470,0 475,0 480,0"/>

<polyline stroke="white" stroke-width="3" fill="black" transform="matrix(1 0 0 -1 0 481)" points="0,0 0,0 5,0 10,0 15,0 20,0 25,0 30,0 35,0 40,1 45,0 50,0 55,0 60,1 65,0 70,0 75,0 80,0 85,2 90,0 95,0 100,0 105,0 110,0 115,1 120,0 125,0 130,0 135,0 140,0 145,0 150,0 155,0 160,0 165,7 170,20 175,11 180,1 185,1 190,2 195,48 200,11 205,0 210,1 215,0 220,0 225,1 230,3 235,15 240,13 245,1 250,2 255,0 260,0 265,0 270,2 275,0 280,1 285,7 290,29 295,5 300,1 305,7 310,2 315,0 320,0 325,0 330,3 335,1 340,4 345,0 350,0 355,0 360,18 365,17 370,20 375,3 380,0 385,0 390,0 395,0 400,0 405,5 410,1 415,2 420,0 425,0 430,0 435,17 440,6 445,1 450,5 455,16 460,3 465,0 470,0 475,0 480,0"/>

<polyline stroke="white" stroke-width="3" fill="black" transform="matrix(1 0 0 -1 0 491)" points="0,0 0,0 5,0 10,6 15,0 20,0 25,0 30,0 35,0 40,0 45,0 50,0 55,2 60,0 65,1 70,0 75,0 80,0 85,0 90,0 95,14 100,1 105,0 110,0 115,0 120,0 125,0 130,0 135,0 140,1 145,0 150,0 155,0 160,0 165,0 170,1 175,9 180,4 185,0 190,0 195,1 200,14 205,8 210,7 215,0 220,2 225,21 230,9 235,18 240,8 245,15 250,0 255,2 260,35 265,41 270,3 275,0 280,2 285,24 290,1 295,9 300,30 305,0 310,0 315,0 320,2 325,9 330,24 335,0 340,0 345,4 350,13 355,2 360,4 365,0 370,0 375,4 380,0 385,0 390,0 395,0 400,0 405,0 410,0 415,0 420,0 425,0 430,0 435,1 440,0 445,0 450,0 455,0 460,0 465,0 470,0 475,0 480,0"/>

<polyline stroke="white" stroke-width="3" fill="black" transform="matrix(1 0 0 -1 0 501)" points="0,0 0,0 5,1 10,1 15,2 20,2 25,0 30,0 35,0 40,0 45,0 50,1 55,0 60,0 65,0 70,0 75,1 80,0 85,0 90,0 95,0 100,1 105,0 110,0 115,0 120,0 125,0 130,0 135,0 140,0 145,0 150,0 155,0 160,1 165,8 170,6 175,7 180,1 185,7 190,1 195,45 200,0 205,0 210,0 215,3 220,15 225,0 230,6 235,25 240,14 245,10 250,7 255,0 260,8 265,1 270,0 275,0 280,0 285,8 290,0 295,4 300,3 305,15 310,0 315,1 320,0 325,0 330,0 335,13 340,1 345,0 350,4 355,0 360,0 365,0 370,2 375,0 380,0 385,0 390,1 395,0 400,2 405,1 410,0 415,0 420,0 425,0 430,0 435,0 440,0 445,0 450,1 455,0 460,0 465,0 470,0 475,0 480,0"/>

<polyline stroke="white" stroke-width="3" fill="black" transform="matrix(1 0 0 -1 0 511)" points="0,0 0,0 5,0 10,0 15,0 20,0 25,0 30,5 35,0 40,0 45,0 50,0 55,0 60,0 65,0 70,1 75,0 80,0 85,0 90,0 95,0 100,0 105,0 110,0 115,0 120,0 125,0 130,0 135,0 140,0 145,0 150,0 155,0 160,0 165,0 170,0 175,0 180,2 185,0 190,0 195,10 200,45 205,27 210,22 215,5 220,22 225,4 230,17 235,11 240,1 245,1 250,9 255,2 260,2 265,7 270,39 275,15 280,0 285,2 290,19 295,43 300,19 305,2 310,0 315,2 320,0 325,4 330,24 335,30 340,14 345,4 350,1 355,0 360,0 365,0 370,8 375,2 380,0 385,2 390,1 395,0 400,0 405,0 410,0 415,0 420,0 425,0 430,0 435,0 440,0 445,0 450,0 455,0 460,3 465,2 470,0 475,0 480,0"/>

<polyline stroke="white" stroke-width="3" fill="black" transform="matrix(1 0 0 -1 0 521)" points="0,0 0,0 5,0 10,0 15,0 20,0 25,1 30,1 35,0 40,0 45,0 50,0 55,0 60,0 65,0 70,0 75,0 80,0 85,0 90,0 95,0 100,0 105,0 110,0 115,0 120,0 125,0 130,0 135,0 140,0 145,0 150,0 155,0 160,4 165,4 170,0 175,1 180,0 185,1 190,20 195,15 200,3 205,0 210,0 215,0 220,0 225,0 230,1 235,1 240,0 245,0 250,1 255,0 260,0 265,0 270,1 275,0 280,1 285,2 290,9 295,3 300,0 305,0 310,3 315,2 320,0 325,0 330,0 335,4 340,0 345,0 350,1 355,0 360,0 365,0 370,0 375,0 380,0 385,0 390,0 395,1 400,0 405,0 410,0 415,0 420,0 425,0 430,0 435,0 440,0 445,0 450,0 455,0 460,0 465,0 470,0 475,0 480,0"/>

<polyline stroke="white" stroke-width="3" fill="black" transform="matrix(1 0 0 -1 0 531)" points="0,0 0,0 5,0 10,0 15,0 20,0 25,0 30,0 35,0 40,0 45,0 50,0 55,0 60,0 65,0 70,0 75,0 80,0 85,0 90,0 95,0 100,1 105,0 110,0 115,0 120,0 125,0 130,0 135,0 140,0 145,0 150,0 155,0 160,0 165,0 170,3 175,0 180,0 185,2 190,0 195,5 200,4 205,6 210,0 215,0 220,0 225,2 230,14 235,24 240,0 245,7 250,15 255,0 260,0 265,0 270,0 275,0 280,0 285,0 290,0 295,0 300,0 305,0 310,8 315,16 320,5 325,0 330,2 335,0 340,0 345,0 350,0 355,0 360,0 365,0 370,5 375,19 380,0 385,0 390,0 395,1 400,0 405,0 410,1 415,0 420,0 425,0 430,0 435,0 440,0 445,0 450,0 455,1 460,0 465,0 470,0 475,0 480,0"/>

<polyline stroke="white" stroke-width="3" fill="black" transform="matrix(1 0 0 -1 0 541)" points="0,0 0,0 5,0 10,0 15,0 20,0 25,0 30,1 35,0 40,0 45,0 50,0 55,0 60,0 65,0 70,0 75,0 80,0 85,0 90,0 95,0 100,0 105,0 110,0 115,0 120,0 125,0 130,0 135,0 140,0 145,0 150,0 155,0 160,0 165,12 170,5 175,0 180,4 185,0 190,1 195,6 200,2 205,19 210,27 215,20 220,2 225,0 230,1 235,1 240,1 245,0 250,2 255,0 260,0 265,3 270,22 275,30 280,13 285,0 290,7 295,0 300,4 305,2 310,16 315,2 320,0 325,0 330,0 335,0 340,0 345,0 350,0 355,0 360,0 365,34 370,33 375,44 380,3 385,1 390,0 395,1 400,3 405,1 410,0 415,0 420,0 425,0 430,0 435,0 440,2 445,0 450,0 455,0 460,0 465,1 470,0 475,0 480,0"/>

<polyline stroke="white" stroke-width="3" fill="black" transform="matrix(1 0 0 -1 0 551)" points="0,0 0,0 5,1 10,0 15,1 20,0 25,0 30,0 35,0 40,1 45,1 50,0 55,0 60,0 65,1 70,2 75,0 80,0 85,0 90,0 95,0 100,0 105,0 110,1 115,0 120,0 125,0 130,0 135,0 140,1 145,7 150,8 155,0 160,0 165,0 170,0 175,0 180,0 185,0 190,9 195,10 200,4 205,1 210,3 215,1 220,4 225,1 230,4 235,4 240,0 245,1 250,3 255,7 260,6 265,6 270,1 275,0 280,0 285,2 290,0 295,0 300,1 305,0 310,0 315,0 320,0 325,0 330,4 335,3 340,0 345,0 350,1 355,0 360,0 365,18 370,0 375,0 380,0 385,0 390,2 395,14 400,12 405,18 410,1 415,0 420,0 425,0 430,0 435,0 440,0 445,0 450,0 455,0 460,0 465,0 470,0 475,1 480,0"/>

<polyline stroke="white" stroke-width="3" fill="black" transform="matrix(1 0 0 -1 0 561)" points="0,0 0,0 5,0 10,0 15,1 20,0 25,0 30,1 35,0 40,0 45,0 50,0 55,0 60,1 65,0 70,0 75,0 80,0 85,0 90,0 95,0 100,0 105,0 110,1 115,0 120,1 125,0 130,1 135,2 140,0 145,0 150,2 155,1 160,0 165,0 170,0 175,1 180,0 185,0 190,1 195,0 200,3 205,6 210,21 215,0 220,0 225,4 230,16 235,0 240,11 245,4 250,0 255,0 260,3 265,0 270,0 275,0 280,2 285,1 290,0 295,0 300,0 305,6 310,44 315,13 320,3 325,1 330,0 335,0 340,2 345,2 350,7 355,5 360,0 365,2 370,3 375,5 380,7 385,2 390,2 395,0 400,0 405,0 410,0 415,0 420,0 425,1 430,0 435,2 440,0 445,0 450,0 455,2 460,2 465,0 470,0 475,0 480,0"/>

<polyline stroke="white" stroke-width="3" fill="black" transform="matrix(1 0 0 -1 0 571)" points="0,0 0,5 5,13 10,7 15,2 20,0 25,11 30,0 35,0 40,0 45,4 50,0 55,2 60,0 65,0 70,0 75,0 80,0 85,4 90,0 95,0 100,5 105,1 110,2 115,7 120,9 125,1 130,0 135,0 140,4 145,0 150,2 155,17 160,53 165,4 170,17 175,11 180,1 185,5 190,5 195,30 200,11 205,1 210,2 215,0 220,0 225,1 230,0 235,6 240,15 245,10 250,5 255,3 260,2 265,30 270,18 275,6 280,2 285,9 290,1 295,10 300,40 305,17 310,5 315,3 320,6 325,4 330,2 335,8 340,11 345,3 350,9 355,1 360,3 365,14 370,3 375,0 380,7 385,14 390,5 395,3 400,2 405,0 410,0 415,0 420,0 425,0 430,0 435,0 440,0 445,0 450,0 455,0 460,0 465,0 470,0 475,0 480,0"/>

<polyline stroke="white" stroke-width="3" fill="black" transform="matrix(1 0 0 -1 0 581)" points="0,0 0,0 5,0 10,3 15,0 20,1 25,0 30,0 35,0 40,0 45,0 50,0 55,0 60,0 65,0 70,4 75,0 80,0 85,0 90,0 95,0 100,1 105,0 110,0 115,1 120,0 125,0 130,1 135,0 140,1 145,4 150,3 155,5 160,2 165,2 170,0 175,0 180,0 185,0 190,0 195,0 200,2 205,0 210,0 215,0 220,0 225,1 230,0 235,1 240,0 245,1 250,4 255,10 260,1 265,10 270,0 275,0 280,0 285,0 290,1 295,3 300,0 305,0 310,0 315,4 320,0 325,1 330,0 335,1 340,6 345,6 350,0 355,0 360,0 365,0 370,0 375,0 380,0 385,0 390,6 395,6 400,0 405,0 410,0 415,10 420,11 425,1 430,0 435,0 440,0 445,1 450,3 455,1 460,14 465,19 470,3 475,5 480,0"/>

<polyline stroke="white" stroke-width="3" fill="black" transform="matrix(1 0 0 -1 0 591)" points="0,0 0,2 5,0 10,3 15,3 20,4 25,0 30,0 35,0 40,1 45,0 50,0 55,0 60,0 65,0 70,0 75,0 80,0 85,4 90,1 95,1 100,22 105,19 110,12 115,0 120,0 125,0 130,0 135,8 140,5 145,36 150,22 155,11 160,0 165,9 170,23 175,1 180,0 185,6 190,12 195,11 200,0 205,0 210,0 215,0 220,0 225,4 230,1 235,0 240,0 245,0 250,0 255,1 260,0 265,0 270,0 275,0 280,0 285,0 290,2 295,6 300,0 305,0 310,0 315,12 320,7 325,1 330,1 335,7 340,12 345,7 350,13 355,13 360,2 365,2 370,0 375,0 380,0 385,0 390,0 395,0 400,1 405,1 410,0 415,0 420,0 425,0 430,2 435,0 440,0 445,0 450,0 455,6 460,2 465,9 470,4 475,2 480,0"/>

<polyline stroke="white" stroke-width="3" fill="black" transform="matrix(1 0 0 -1 0 601)" points="0,0 0,24 5,2 10,8 15,17 20,29 25,7 30,0 35,9 40,3 45,8 50,3 55,0 60,0 65,1 70,0 75,7 80,4 85,3 90,1 95,0 100,0 105,0 110,0 115,1 120,3 125,7 130,1 135,2 140,14 145,1 150,4 155,0 160,5 165,0 170,2 175,2 180,12 185,10 190,7 195,9 200,14 205,5 210,9 215,0 220,0 225,3 230,1 235,0 240,2 245,4 250,0 255,5 260,7 265,0 270,0 275,1 280,2 285,28 290,1 295,0 300,5 305,5 310,12 315,3 320,11 325,52 330,8 335,0 340,0 345,0 350,0 355,9 360,0 365,0 370,0 375,0 380,0 385,4 390,10 395,0 400,0 405,0 410,0 415,0 420,7 425,18 430,5 435,10 440,23 445,0 450,1 455,1 460,0 465,2 470,3 475,6 480,0"/>

<polyline stroke="white" stroke-width="3" fill="black" transform="matrix(1 0 0 -1 0 611)" points="0,0 0,0 5,0 10,0 15,0 20,0 25,0 30,0 35,0 40,0 45,0 50,2 55,3 60,0 65,0 70,0 75,0 80,1 85,0 90,1 95,0 100,1 105,0 110,0 115,0 120,5 125,4 130,0 135,3 140,0 145,0 150,0 155,0 160,1 165,0 170,1 175,3 180,1 185,3 190,9 195,7 200,0 205,2 210,1 215,0 220,8 225,6 230,13 235,22 240,18 245,2 250,20 255,19 260,17 265,46 270,56 275,67 280,15 285,11 290,38 295,23 300,38 305,0 310,4 315,5 320,1 325,20 330,20 335,8 340,2 345,9 350,2 355,2 360,0 365,7 370,2 375,0 380,27 385,23 390,10 395,6 400,7 405,15 410,2 415,12 420,10 425,10 430,6 435,2 440,0 445,1 450,0 455,0 460,13 465,8 470,5 475,0 480,0"/>

<polyline stroke="white" stroke-width="3" fill="black" transform="matrix(1 0 0 -1 0 621)" points="0,0 0,0 5,0 10,0 15,0 20,1 25,0 30,0 35,0 40,0 45,0 50,0 55,0 60,0 65,11 70,13 75,5 80,4 85,3 90,2 95,1 100,3 105,0 110,0 115,0 120,0 125,0 130,0 135,1 140,0 145,0 150,0 155,0 160,5 165,0 170,0 175,0 180,0 185,0 190,0 195,1 200,0 205,0 210,1 215,0 220,1 225,1 230,0 235,0 240,0 245,1 250,1 255,1 260,7 265,0 270,0 275,1 280,0 285,0 290,0 295,0 300,1 305,1 310,0 315,4 320,18 325,0 330,0 335,3 340,8 345,5 350,6 355,10 360,3 365,7 370,34 375,38 380,7 385,14 390,9 395,0 400,17 405,2 410,19 415,0 420,0 425,0 430,0 435,0 440,0 445,0 450,0 455,1 460,2 465,0 470,0 475,0 480,0"/>

<polyline stroke="white" stroke-width="3" fill="black" transform="matrix(1 0 0 -1 0 631)" points="0,0 0,0 5,0 10,0 15,4 20,2 25,0 30,1 35,2 40,0 45,0 50,0 55,5 60,6 65,0 70,0 75,0 80,0 85,0 90,3 95,0 100,0 105,7 110,0 115,0 120,0 125,0 130,0 135,1 140,0 145,0 150,0 155,0 160,0 165,0 170,2 175,0 180,11 185,1 190,1 195,1 200,9 205,15 210,0 215,19 220,6 225,2 230,20 235,22 240,23 245,25 250,18 255,0 260,0 265,4 270,16 275,15 280,7 285,12 290,0 295,3 300,0 305,0 310,0 315,0 320,3 325,8 330,1 335,0 340,0 345,8 350,15 355,3 360,0 365,0 370,7 375,23 380,17 385,0 390,1 395,0 400,0 405,7 410,1 415,2 420,3 425,3 430,1 435,0 440,0 445,0 450,2 455,0 460,0 465,2 470,2 475,0 480,0"/>

<polyline stroke="white" stroke-width="3" fill="black" transform="matrix(1 0 0 -1 0 641)" points="0,0 0,17 5,6 10,0 15,0 20,2 25,0 30,0 35,0 40,0 45,0 50,0 55,0 60,0 65,1 70,0 75,2 80,0 85,0 90,0 95,0 100,0 105,0 110,12 115,3 120,0 125,0 130,0 135,0 140,1 145,3 150,6 155,7 160,17 165,22 170,12 175,22 180,7 185,8 190,16 195,9 200,11 205,11 210,5 215,10 220,8 225,10 230,31 235,5 240,2 245,45 250,48 255,35 260,13 265,32 270,54 275,28 280,36 285,58 290,56 295,57 300,7 305,2 310,4 315,0 320,2 325,0 330,0 335,0 340,1 345,4 350,7 355,17 360,2 365,0 370,0 375,7 380,23 385,0 390,13 395,14 400,12 405,6 410,2 415,1 420,0 425,0 430,0 435,0 440,0 445,0 450,0 455,2 460,2 465,0 470,0 475,0 480,0"/>

<polyline stroke="white" stroke-width="3" fill="black" transform="matrix(1 0 0 -1 0 651)" points="0,0 0,0 5,0 10,0 15,0 20,0 25,0 30,0 35,0 40,0 45,1 50,0 55,0 60,8 65,3 70,2 75,0 80,0 85,0 90,0 95,0 100,0 105,0 110,0 115,3 120,0 125,14 130,9 135,19 140,5 145,12 150,15 155,32 160,48 165,72 170,25 175,36 180,13 185,20 190,13 195,3 200,9 205,26 210,0 215,2 220,2 225,9 230,5 235,8 240,0 245,5 250,11 255,23 260,9 265,4 270,8 275,9 280,7 285,4 290,8 295,8 300,5 305,2 310,3 315,3 320,0 325,4 330,5 335,0 340,6 345,2 350,0 355,0 360,0 365,0 370,0 375,0 380,2 385,0 390,7 395,3 400,2 405,2 410,2 415,2 420,0 425,1 430,14 435,14 440,3 445,4 450,8 455,3 460,0 465,0 470,0 475,3 480,0"/>

<polyline stroke="white" stroke-width="3" fill="black" transform="matrix(1 0 0 -1 0 661)" points="0,0 0,0 5,0 10,0 15,0 20,0 25,0 30,0 35,0 40,0 45,0 50,0 55,0 60,0 65,0 70,0 75,0 80,0 85,0 90,1 95,0 100,16 105,13 110,15 115,2 120,0 125,0 130,0 135,0 140,2 145,0 150,0 155,0 160,0 165,0 170,0 175,0 180,0 185,2 190,0 195,0 200,2 205,0 210,0 215,1 220,5 225,4 230,5 235,0 240,0 245,2 250,8 255,4 260,8 265,40 270,0 275,1 280,9 285,12 290,2 295,3 300,4 305,1 310,0 315,0 320,0 325,0 330,3 335,5 340,5 345,8 350,0 355,1 360,0 365,2 370,2 375,2 380,6 385,5 390,4 395,4 400,15 405,0 410,0 415,4 420,1 425,0 430,0 435,0 440,0 445,0 450,0 455,0 460,0 465,0 470,0 475,0 480,0"/>

<polyline stroke="white" stroke-width="3" fill="black" transform="matrix(1 0 0 -1 0 671)" points="0,0 0,0 5,0 10,0 15,0 20,0 25,0 30,0 35,0 40,0 45,0 50,0 55,7 60,0 65,0 70,0 75,1 80,0 85,0 90,0 95,0 100,0 105,0 110,1 115,5 120,7 125,1 130,1 135,0 140,1 145,3 150,0 155,0 160,0 165,0 170,0 175,2 180,2 185,14 190,8 195,18 200,7 205,7 210,0 215,3 220,7 225,1 230,0 235,1 240,0 245,1 250,0 255,0 260,2 265,0 270,0 275,0 280,0 285,3 290,2 295,1 300,0 305,0 310,0 315,0 320,3 325,4 330,1 335,2 340,3 345,0 350,2 355,6 360,4 365,0 370,0 375,0 380,0 385,0 390,0 395,0 400,0 405,0 410,0 415,1 420,1 425,7 430,1 435,0 440,0 445,0 450,0 455,0 460,0 465,1 470,0 475,0 480,0"/>

<polyline stroke="white" stroke-width="3" fill="black" transform="matrix(1 0 0 -1 0 681)" points="0,0 0,0 5,0 10,0 15,0 20,2 25,1 30,4 35,0 40,0 45,0 50,0 55,0 60,0 65,0 70,0 75,1 80,0 85,0 90,0 95,0 100,0 105,0 110,0 115,0 120,0 125,0 130,0 135,1 140,1 145,10 150,2 155,0 160,1 165,2 170,1 175,5 180,1 185,1 190,23 195,9 200,24 205,42 210,29 215,5 220,1 225,11 230,5 235,0 240,3 245,0 250,2 255,0 260,2 265,0 270,3 275,4 280,5 285,1 290,4 295,0 300,2 305,0 310,1 315,0 320,1 325,1 330,0 335,0 340,0 345,0 350,2 355,2 360,0 365,0 370,0 375,0 380,0 385,0 390,0 395,2 400,0 405,0 410,0 415,0 420,0 425,0 430,0 435,0 440,0 445,0 450,0 455,0 460,0 465,0 470,0 475,0 480,0"/>

<polyline stroke="white" stroke-width="3" fill="black" transform="matrix(1 0 0 -1 0 691)" points="0,0 0,9 5,7 10,3 15,2 20,0 25,0 30,0 35,0 40,0 45,0 50,6 55,3 60,1 65,0 70,2 75,0 80,4 85,1 90,2 95,0 100,0 105,0 110,0 115,0 120,0 125,1 130,0 135,0 140,0 145,0 150,0 155,0 160,0 165,0 170,1 175,0 180,1 185,0 190,0 195,0 200,0 205,2 210,1 215,0 220,0 225,0 230,0 235,1 240,2 245,0 250,4 255,1 260,0 265,16 270,0 275,0 280,0 285,1 290,0 295,0 300,2 305,1 310,13 315,6 320,0 325,1 330,0 335,0 340,1 345,0 350,0 355,8 360,7 365,1 370,1 375,11 380,0 385,0 390,0 395,3 400,28 405,10 410,5 415,8 420,20 425,9 430,0 435,0 440,0 445,0 450,0 455,0 460,0 465,2 470,4 475,3 480,0"/>

<polyline stroke="white" stroke-width="3" fill="black" transform="matrix(1 0 0 -1 0 701)" points="0,0 0,0 5,1 10,0 15,0 20,2 25,2 30,1 35,1 40,1 45,13 50,8 55,12 60,1 65,2 70,2 75,0 80,6 85,0 90,0 95,1 100,1 105,0 110,0 115,1 120,2 125,0 130,12 135,10 140,0 145,1 150,2 155,0 160,4 165,1 170,1 175,0 180,10 185,5 190,0 195,4 200,5 205,1 210,2 215,10 220,28 225,11 230,0 235,3 240,10 245,26 250,6 255,2 260,6 265,3 270,13 275,3 280,1 285,5 290,0 295,0 300,0 305,0 310,0 315,1 320,10 325,16 330,5 335,13 340,1 345,0 350,5 355,11 360,4 365,0 370,0 375,0 380,0 385,10 390,17 395,15 400,18 405,10 410,3 415,2 420,0 425,4 430,14 435,13 440,0 445,0 450,0 455,0 460,2 465,1 470,0 475,2 480,0"/>

<polyline stroke="white" stroke-width="3" fill="black" transform="matrix(1 0 0 -1 0 711)" points="0,0 0,0 5,1 10,0 15,3 20,0 25,1 30,0 35,0 40,0 45,1 50,1 55,0 60,2 65,1 70,3 75,0 80,0 85,6 90,1 95,0 100,0 105,0 110,0 115,0 120,0 125,0 130,1 135,0 140,0 145,0 150,2 155,2 160,6 165,9 170,12 175,33 180,6 185,11 190,12 195,6 200,0 205,0 210,4 215,1 220,0 225,0 230,4 235,4 240,27 245,5 250,17 255,8 260,15 265,17 270,8 275,27 280,2 285,6 290,0 295,1 300,0 305,11 310,0 315,0 320,19 325,1 330,0 335,0 340,1 345,0 350,1 355,0 360,14 365,0 370,0 375,2 380,0 385,1 390,0 395,0 400,0 405,0 410,0 415,0 420,0 425,0 430,0 435,0 440,0 445,0 450,0 455,0 460,0 465,0 470,0 475,6 480,0"/>

<polyline stroke="white" stroke-width="3" fill="black" transform="matrix(1 0 0 -1 0 721)" points="0,0 0,3 5,0 10,0 15,0 20,0 25,0 30,2 35,0 40,1 45,7 50,1 55,3 60,0 65,1 70,0 75,0 80,13 85,7 90,4 95,1 100,0 105,0 110,0 115,0 120,0 125,3 130,2 135,0 140,1 145,0 150,1 155,2 160,7 165,6 170,2 175,0 180,10 185,15 190,25 195,43 200,29 205,22 210,10 215,6 220,24 225,2 230,0 235,3 240,5 245,5 250,0 255,12 260,6 265,6 270,7 275,2 280,0 285,0 290,0 295,0 300,0 305,0 310,0 315,0 320,0 325,4 330,0 335,1 340,0 345,0 350,0 355,0 360,0 365,0 370,0 375,0 380,0 385,0 390,0 395,0 400,0 405,5 410,7 415,20 420,1 425,8 430,17 435,2 440,6 445,4 450,0 455,0 460,0 465,0 470,0 475,0 480,0"/>

<polyline stroke="white" stroke-width="3" fill="black" transform="matrix(1 0 0 -1 0 731)" points="0,0 0,0 5,0 10,1 15,0 20,0 25,0 30,1 35,0 40,0 45,4 50,0 55,0 60,0 65,0 70,0 75,0 80,2 85,0 90,0 95,0 100,1 105,0 110,0 115,0 120,0 125,0 130,0 135,0 140,1 145,0 150,0 155,7 160,0 165,1 170,2 175,2 180,0 185,0 190,0 195,11 200,0 205,3 210,3 215,1 220,0 225,1 230,0 235,0 240,4 245,0 250,0 255,0 260,0 265,1 270,0 275,0 280,0 285,1 290,3 295,0 300,0 305,0 310,0 315,0 320,1 325,0 330,0 335,0 340,0 345,0 350,0 355,0 360,0 365,0 370,0 375,0 380,2 385,0 390,0 395,0 400,0 405,0 410,0 415,0 420,0 425,0 430,2 435,9 440,12 445,30 450,1 455,3 460,0 465,0 470,0 475,0 480,0"/>

<polyline stroke="white" stroke-width="3" fill="black" transform="matrix(1 0 0 -1 0 741)" points="0,0 0,2 5,7 10,1 15,1 20,0 25,0 30,0 35,0 40,0 45,0 50,0 55,1 60,0 65,0 70,0 75,0 80,0 85,0 90,2 95,0 100,1 105,2 110,0 115,0 120,0 125,0 130,0 135,0 140,0 145,0 150,0 155,0 160,0 165,0 170,0 175,3 180,10 185,1 190,2 195,17 200,6 205,24 210,13 215,5 220,17 225,35 230,3 235,7 240,3 245,6 250,1 255,6 260,27 265,4 270,24 275,19 280,6 285,0 290,0 295,2 300,5 305,0 310,0 315,0 320,1 325,1 330,0 335,0 340,4 345,0 350,0 355,0 360,12 365,7 370,1 375,0 380,7 385,0 390,0 395,0 400,1 405,0 410,0 415,3 420,1 425,0 430,1 435,0 440,0 445,0 450,0 455,0 460,0 465,0 470,0 475,0 480,0"/>

<polyline stroke="white" stroke-width="3" fill="black" transform="matrix(1 0 0 -1 0 751)" points="0,0 0,0 5,1 10,0 15,1 20,0 25,0 30,0 35,2 40,0 45,0 50,0 55,0 60,0 65,0 70,0 75,0 80,0 85,0 90,0 95,0 100,0 105,0 110,0 115,0 120,3 125,0 130,0 135,1 140,0 145,0 150,1 155,0 160,0 165,2 170,0 175,0 180,0 185,0 190,0 195,0 200,0 205,0 210,0 215,0 220,0 225,0 230,0 235,0 240,0 245,4 250,6 255,2 260,9 265,2 270,0 275,0 280,0 285,0 290,5 295,8 300,2 305,2 310,0 315,0 320,1 325,0 330,0 335,7 340,0 345,4 350,1 355,1 360,0 365,0 370,0 375,0 380,0 385,0 390,0 395,0 400,0 405,0 410,0 415,0 420,6 425,3 430,1 435,0 440,1 445,14 450,0 455,0 460,0 465,0 470,1 475,0 480,0"/>

<polyline stroke="white" stroke-width="3" fill="black" transform="matrix(1 0 0 -1 0 761)" points="0,0 0,1 5,0 10,0 15,2 20,2 25,0 30,1 35,0 40,0 45,1 50,1 55,5 60,38 65,38 70,29 75,0 80,0 85,0 90,0 95,0 100,1 105,0 110,0 115,0 120,3 125,9 130,3 135,0 140,3 145,1 150,4 155,0 160,1 165,0 170,1 175,1 180,3 185,3 190,0 195,1 200,0 205,2 210,1 215,2 220,13 225,2 230,8 235,15 240,14 245,4 250,22 255,7 260,31 265,16 270,2 275,5 280,1 285,10 290,0 295,0 300,2 305,0 310,1 315,5 320,0 325,4 330,8 335,0 340,0 345,0 350,0 355,0 360,0 365,1 370,0 375,0 380,0 385,0 390,0 395,0 400,0 405,0 410,0 415,0 420,0 425,0 430,0 435,0 440,0 445,0 450,0 455,0 460,0 465,0 470,0 475,0 480,0"/>

<polyline stroke="white" stroke-width="3" fill="black" transform="matrix(1 0 0 -1 0 771)" points="0,0 0,5 5,1 10,22 15,18 20,0 25,0 30,0 35,1 40,0 45,0 50,0 55,3 60,17 65,16 70,0 75,6 80,15 85,0 90,0 95,2 100,1 105,2 110,0 115,1 120,1 125,1 130,1 135,0 140,2 145,4 150,0 155,2 160,0 165,0 170,0 175,1 180,0 185,0 190,0 195,4 200,5 205,0 210,0 215,5 220,6 225,1 230,8 235,3 240,0 245,1 250,1 255,0 260,1 265,0 270,2 275,3 280,3 285,3 290,9 295,7 300,10 305,7 310,1 315,3 320,4 325,38 330,3 335,5 340,3 345,9 350,4 355,15 360,19 365,9 370,0 375,2 380,0 385,0 390,1 395,0 400,0 405,0 410,0 415,6 420,0 425,0 430,10 435,0 440,3 445,2 450,5 455,21 460,10 465,0 470,0 475,2 480,0"/>

<polyline stroke="white" stroke-width="3" fill="black" transform="matrix(1 0 0 -1 0 781)" points="0,0 0,0 5,1 10,0 15,1 20,13 25,3 30,1 35,0 40,0 45,0 50,0 55,0 60,0 65,1 70,2 75,2 80,0 85,2 90,1 95,1 100,2 105,0 110,0 115,0 120,0 125,0 130,1 135,0 140,3 145,0 150,0 155,1 160,1 165,0 170,1 175,11 180,0 185,0 190,0 195,0 200,2 205,20 210,0 215,1 220,11 225,8 230,8 235,22 240,26 245,3 250,22 255,21 260,19 265,15 270,6 275,0 280,0 285,6 290,1 295,3 300,0 305,0 310,11 315,17 320,34 325,0 330,1 335,0 340,5 345,11 350,7 355,2 360,9 365,0 370,4 375,7 380,4 385,0 390,0 395,0 400,0 405,10 410,16 415,4 420,1 425,0 430,0 435,2 440,9 445,2 450,0 455,0 460,1 465,0 470,0 475,0 480,0"/>

<polyline stroke="white" stroke-width="3" fill="black" transform="matrix(1 0 0 -1 0 791)" points="0,0 0,0 5,0 10,0 15,0 20,3 25,0 30,8 35,21 40,0 45,0 50,0 55,0 60,3 65,0 70,0 75,0 80,0 85,0 90,1 95,0 100,0 105,0 110,0 115,0 120,0 125,0 130,0 135,0 140,2 145,5 150,1 155,11 160,26 165,27 170,30 175,19 180,21 185,42 190,39 195,32 200,39 205,26 210,9 215,12 220,12 225,1 230,7 235,3 240,5 245,15 250,35 255,24 260,5 265,24 270,8 275,6 280,1 285,2 290,10 295,11 300,15 305,11 310,2 315,2 320,1 325,0 330,5 335,5 340,3 345,0 350,2 355,0 360,28 365,26 370,26 375,4 380,0 385,4 390,24 395,8 400,7 405,12 410,0 415,1 420,0 425,0 430,0 435,1 440,1 445,3 450,19 455,0 460,0 465,1 470,0 475,0 480,0"/>

<polyline stroke="white" stroke-width="3" fill="black" transform="matrix(1 0 0 -1 0 801)" points="0,0 0,0 5,2 10,2 15,0 20,0 25,0 30,0 35,0 40,0 45,2 50,0 55,0 60,0 65,0 70,2 75,0 80,1 85,1 90,0 95,0 100,0 105,0 110,0 115,2 120,0 125,2 130,0 135,0 140,0 145,1 150,0 155,0 160,3 165,1 170,0 175,0 180,0 185,0 190,0 195,4 200,5 205,18 210,5 215,0 220,0 225,0 230,1 235,4 240,7 245,8 250,20 255,27 260,27 265,10 270,16 275,7 280,0 285,0 290,0 295,1 300,10 305,0 310,3 315,8 320,25 325,11 330,20 335,30 340,11 345,13 350,7 355,24 360,2 365,0 370,0 375,0 380,0 385,0 390,0 395,0 400,0 405,0 410,0 415,0 420,0 425,1 430,0 435,0 440,0 445,0 450,1 455,0 460,0 465,0 470,0 475,0 480,0"/>

<polyline stroke="white" stroke-width="3" fill="black" transform="matrix(1 0 0 -1 0 811)" points="0,0 0,0 5,1 10,0 15,1 20,0 25,1 30,0 35,0 40,0 45,0 50,0 55,0 60,0 65,3 70,1 75,0 80,1 85,6 90,1 95,1 100,0 105,0 110,0 115,0 120,0 125,0 130,0 135,0 140,0 145,0 150,1 155,0 160,0 165,0 170,0 175,0 180,1 185,1 190,3 195,11 200,19 205,4 210,8 215,9 220,9 225,6 230,5 235,4 240,3 245,26 250,3 255,0 260,9 265,2 270,7 275,20 280,12 285,2 290,3 295,0 300,1 305,0 310,4 315,17 320,14 325,3 330,0 335,0 340,0 345,0 350,5 355,1 360,0 365,0 370,8 375,5 380,5 385,5 390,1 395,2 400,1 405,0 410,2 415,0 420,0 425,0 430,0 435,0 440,0 445,1 450,0 455,0 460,0 465,2 470,0 475,0 480,0"/>

<polyline stroke="white" stroke-width="3" fill="black" transform="matrix(1 0 0 -1 0 821)" points="0,0 0,0 5,3 10,0 15,1 20,2 25,0 30,0 35,13 40,17 45,15 50,2 55,0 60,0 65,0 70,0 75,0 80,0 85,0 90,0 95,0 100,0 105,1 110,1 115,0 120,0 125,0 130,1 135,0 140,0 145,0 150,0 155,0 160,0 165,1 170,0 175,1 180,4 185,3 190,0 195,4 200,1 205,1 210,6 215,5 220,0 225,6 230,17 235,18 240,13 245,7 250,9 255,7 260,7 265,1 270,10 275,22 280,18 285,26 290,27 295,33 300,22 305,2 310,20 315,11 320,4 325,8 330,0 335,0 340,7 345,4 350,6 355,37 360,20 365,3 370,0 375,1 380,0 385,1 390,3 395,20 400,1 405,0 410,0 415,0 420,0 425,0 430,0 435,0 440,0 445,1 450,2 455,0 460,1 465,0 470,1 475,0 480,0"/>

<polyline stroke="white" stroke-width="3" fill="black" transform="matrix(1 0 0 -1 0 831)" points="0,0 0,1 5,2 10,2 15,6 20,0 25,0 30,1 35,0 40,0 45,0 50,0 55,0 60,0 65,0 70,0 75,1 80,0 85,1 90,0 95,1 100,0 105,0 110,0 115,2 120,0 125,0 130,0 135,0 140,2 145,1 150,0 155,0 160,0 165,1 170,1 175,0 180,0 185,0 190,3 195,16 200,44 205,37 210,0 215,0 220,14 225,9 230,17 235,49 240,23 245,27 250,42 255,17 260,8 265,0 270,1 275,5 280,15 285,5 290,1 295,0 300,20 305,3 310,0 315,0 320,1 325,2 330,0 335,1 340,6 345,13 350,0 355,0 360,0 365,0 370,0 375,0 380,0 385,0 390,1 395,17 400,2 405,5 410,0 415,0 420,0 425,2 430,7 435,4 440,0 445,1 450,1 455,2 460,1 465,1 470,10 475,10 480,0"/>

<polyline stroke="white" stroke-width="3" fill="black" transform="matrix(1 0 0 -1 0 841)" points="0,0 0,0 5,0 10,0 15,0 20,1 25,8 30,6 35,5 40,0 45,0 50,0 55,0 60,0 65,0 70,3 75,2 80,0 85,0 90,0 95,3 100,0 105,0 110,0 115,0 120,0 125,0 130,1 135,0 140,0 145,0 150,1 155,1 160,0 165,1 170,1 175,0 180,1 185,8 190,18 195,32 200,51 205,48 210,35 215,22 220,5 225,0 230,0 235,20 240,9 245,29 250,6 255,0 260,1 265,1 270,0 275,12 280,16 285,1 290,20 295,15 300,0 305,2 310,5 315,4 320,0 325,0 330,3 335,5 340,18 345,4 350,6 355,8 360,0 365,0 370,1 375,4 380,0 385,6 390,7 395,6 400,18 405,8 410,13 415,3 420,0 425,0 430,0 435,1 440,3 445,0 450,5 455,0 460,0 465,0 470,0 475,0 480,0"/>

<polyline stroke="white" stroke-width="3" fill="black" transform="matrix(1 0 0 -1 0 851)" points="0,0 0,0 5,0 10,1 15,0 20,0 25,0 30,0 35,0 40,0 45,0 50,0 55,0 60,0 65,2 70,3 75,2 80,0 85,1 90,0 95,2 100,0 105,0 110,0 115,0 120,1 125,0 130,0 135,0 140,0 145,0 150,2 155,2 160,1 165,0 170,0 175,0 180,0 185,6 190,0 195,2 200,9 205,9 210,4 215,1 220,2 225,0 230,10 235,31 240,4 245,5 250,18 255,5 260,2 265,0 270,1 275,0 280,0 285,0 290,0 295,0 300,0 305,2 310,2 315,0 320,1 325,0 330,0 335,0 340,1 345,0 350,0 355,0 360,0 365,0 370,0 375,0 380,5 385,0 390,1 395,0 400,0 405,0 410,4 415,18 420,17 425,0 430,0 435,1 440,0 445,0 450,2 455,0 460,0 465,0 470,0 475,1 480,0"/>

<polyline stroke="white" stroke-width="3" fill="black" transform="matrix(1 0 0 -1 0 861)" points="0,0 0,1 5,0 10,0 15,0 20,0 25,2 30,0 35,1 40,2 45,1 50,2 55,0 60,0 65,0 70,0 75,2 80,0 85,0 90,0 95,0 100,4 105,0 110,0 115,0 120,0 125,0 130,0 135,2 140,2 145,5 150,0 155,0 160,0 165,0 170,0 175,6 180,0 185,1 190,1 195,1 200,42 205,20 210,26 215,11 220,6 225,0 230,26 235,20 240,4 245,9 250,1 255,0 260,8 265,16 270,17 275,6 280,7 285,0 290,19 295,22 300,0 305,2 310,7 315,17 320,0 325,5 330,1 335,0 340,0 345,0 350,0 355,0 360,0 365,2 370,0 375,1 380,0 385,0 390,0 395,0 400,0 405,0 410,0 415,0 420,2 425,0 430,0 435,1 440,0 445,0 450,0 455,1 460,0 465,0 470,0 475,0 480,0"/>

<polyline stroke="white" stroke-width="3" fill="black" transform="matrix(1 0 0 -1 0 871)" points="0,0 0,2 5,0 10,2 15,0 20,3 25,0 30,3 35,0 40,0 45,0 50,1 55,0 60,3 65,4 70,0 75,0 80,0 85,0 90,0 95,0 100,0 105,0 110,0 115,0 120,0 125,0 130,0 135,0 140,0 145,0 150,0 155,0 160,1 165,0 170,1 175,1 180,1 185,0 190,0 195,1 200,0 205,3 210,6 215,0 220,0 225,15 230,13 235,1 240,1 245,7 250,8 255,23 260,11 265,8 270,49 275,35 280,33 285,8 290,0 295,1 300,2 305,17 310,2 315,0 320,0 325,0 330,0 335,0 340,0 345,0 350,0 355,0 360,5 365,3 370,2 375,5 380,1 385,1 390,0 395,1 400,2 405,0 410,0 415,0 420,13 425,8 430,0 435,18 440,0 445,0 450,0 455,0 460,0 465,0 470,2 475,0 480,0"/>

<polyline stroke="white" stroke-width="3" fill="black" transform="matrix(1 0 0 -1 0 881)" points="0,0 0,2 5,0 10,1 15,2 20,0 25,0 30,0 35,0 40,1 45,0 50,0 55,0 60,0 65,0 70,0 75,0 80,0 85,0 90,0 95,1 100,1 105,0 110,0 115,0 120,0 125,0 130,0 135,0 140,0 145,0 150,0 155,0 160,2 165,0 170,0 175,0 180,2 185,6 190,16 195,0 200,0 205,0 210,0 215,1 220,0 225,0 230,2 235,2 240,0 245,0 250,3 255,3 260,3 265,0 270,14 275,4 280,8 285,3 290,0 295,14 300,5 305,4 310,2 315,11 320,5 325,1 330,7 335,4 340,1 345,1 350,0 355,1 360,23 365,21 370,3 375,33 380,3 385,0 390,0 395,0 400,0 405,0 410,0 415,4 420,0 425,3 430,0 435,0 440,0 445,2 450,4 455,0 460,0 465,5 470,0 475,1 480,0"/>

<polyline stroke="white" stroke-width="3" fill="black" transform="matrix(1 0 0 -1 0 891)" points="0,0 0,0 5,0 10,0 15,0 20,0 25,0 30,0 35,6 40,0 45,1 50,0 55,0 60,1 65,2 70,0 75,1 80,0 85,0 90,0 95,0 100,1 105,1 110,0 115,0 120,0 125,1 130,1 135,0 140,4 145,0 150,2 155,0 160,3 165,2 170,0 175,0 180,0 185,1 190,2 195,0 200,0 205,0 210,18 215,6 220,31 225,19 230,4 235,7 240,22 245,46 250,23 255,16 260,66 265,13 270,10 275,49 280,18 285,16 290,17 295,0 300,16 305,16 310,3 315,0 320,10 325,2 330,0 335,0 340,5 345,20 350,0 355,6 360,20 365,0 370,6 375,9 380,3 385,3 390,0 395,0 400,0 405,0 410,0 415,0 420,3 425,0 430,2 435,0 440,0 445,3 450,4 455,0 460,10 465,0 470,0 475,0 480,0"/>

<polyline stroke="white" stroke-width="3" fill="black" transform="matrix(1 0 0 -1 0 901)" points="0,0 0,0 5,0 10,0 15,0 20,0 25,2 30,0 35,0 40,0 45,0 50,13 55,15 60,0 65,0 70,2 75,2 80,5 85,9 90,0 95,1 100,4 105,0 110,1 115,1 120,1 125,0 130,0 135,3 140,4 145,9 150,1 155,1 160,0 165,2 170,1 175,0 180,4 185,13 190,9 195,5 200,5 205,11 210,16 215,17 220,4 225,10 230,8 235,5 240,5 245,26 250,6 255,4 260,11 265,26 270,32 275,5 280,9 285,15 290,2 295,2 300,0 305,0 310,2 315,11 320,22 325,47 330,8 335,4 340,10 345,13 350,10 355,43 360,19 365,4 370,51 375,16 380,2 385,1 390,13 395,1 400,0 405,0 410,0 415,1 420,2 425,4 430,3 435,5 440,9 445,16 450,0 455,0 460,2 465,7 470,1 475,0 480,0"/>

<polyline stroke="white" stroke-width="3" fill="black" transform="matrix(1 0 0 -1 0 911)" points="0,0 0,1 5,0 10,1 15,1 20,0 25,2 30,0 35,0 40,0 45,0 50,4 55,2 60,0 65,0 70,1 75,0 80,0 85,0 90,1 95,2 100,1 105,0 110,0 115,0 120,0 125,0 130,1 135,1 140,5 145,0 150,0 155,2 160,0 165,1 170,2 175,2 180,0 185,0 190,0 195,0 200,1 205,1 210,0 215,4 220,2 225,7 230,17 235,28 240,2 245,0 250,0 255,1 260,21 265,0 270,12 275,8 280,16 285,1 290,1 295,2 300,1 305,1 310,0 315,1 320,0 325,5 330,5 335,9 340,5 345,2 350,0 355,17 360,11 365,0 370,6 375,0 380,0 385,0 390,2 395,5 400,4 405,0 410,0 415,1 420,0 425,1 430,0 435,2 440,1 445,1 450,2 455,1 460,2 465,1 470,0 475,0 480,0"/>

<polyline stroke="white" stroke-width="3" fill="black" transform="matrix(1 0 0 -1 0 921)" points="0,0 0,0 5,0 10,0 15,0 20,3 25,4 30,0 35,0 40,0 45,0 50,5 55,3 60,0 65,0 70,0 75,2 80,1 85,1 90,0 95,0 100,0 105,0 110,0 115,0 120,0 125,0 130,0 135,1 140,0 145,0 150,2 155,0 160,2 165,0 170,1 175,0 180,0 185,0 190,12 195,46 200,40 205,21 210,23 215,7 220,0 225,6 230,1 235,2 240,16 245,40 250,25 255,54 260,47 265,21 270,19 275,29 280,8 285,48 290,50 295,42 300,33 305,10 310,0 315,0 320,0 325,0 330,0 335,0 340,0 345,2 350,1 355,2 360,12 365,7 370,20 375,14 380,7 385,7 390,2 395,1 400,0 405,0 410,0 415,1 420,0 425,0 430,2 435,1 440,0 445,1 450,0 455,0 460,0 465,3 470,0 475,3 480,0"/>

<polyline stroke="white" stroke-width="3" fill="black" transform="matrix(1 0 0 -1 0 931)" points="0,0 0,0 5,0 10,0 15,0 20,0 25,0 30,0 35,0 40,0 45,0 50,9 55,43 60,32 65,7 70,0 75,0 80,0 85,0 90,0 95,0 100,0 105,0 110,1 115,0 120,0 125,0 130,0 135,1 140,4 145,7 150,1 155,1 160,0 165,0 170,0 175,0 180,0 185,2 190,0 195,0 200,8 205,19 210,10 215,1 220,1 225,20 230,14 235,8 240,23 245,27 250,12 255,4 260,9 265,3 270,2 275,2 280,5 285,1 290,17 295,7 300,10 305,6 310,0 315,3 320,2 325,1 330,1 335,0 340,2 345,1 350,1 355,0 360,0 365,0 370,6 375,7 380,2 385,0 390,0 395,0 400,3 405,1 410,1 415,0 420,3 425,0 430,0 435,0 440,1 445,11 450,2 455,1 460,0 465,0 470,0 475,0 480,0"/>

<polyline stroke="white" stroke-width="3" fill="black" transform="matrix(1 0 0 -1 0 941)" points="0,0 0,0 5,5 10,5 15,0 20,0 25,1 30,0 35,5 40,1 45,1 50,0 55,2 60,0 65,0 70,0 75,0 80,0 85,0 90,0 95,0 100,0 105,1 110,0 115,0 120,0 125,0 130,0 135,0 140,0 145,1 150,0 155,0 160,1 165,0 170,0 175,0 180,1 185,0 190,0 195,1 200,4 205,2 210,4 215,0 220,1 225,0 230,0 235,17 240,24 245,26 250,10 255,7 260,40 265,35 270,13 275,21 280,0 285,0 290,0 295,2 300,2 305,10 310,16 315,0 320,1 325,0 330,1 335,0 340,2 345,0 350,0 355,0 360,0 365,0 370,11 375,1 380,1 385,0 390,0 395,0 400,7 405,1 410,0 415,0 420,0 425,0 430,0 435,0 440,0 445,0 450,4 455,0 460,1 465,1 470,18 475,4 480,0"/>

<polyline stroke="white" stroke-width="3" fill="black" transform="matrix(1 0 0 -1 0 951)" points="0,0 0,0 5,2 10,0 15,1 20,0 25,0 30,0 35,0 40,0 45,2 50,0 55,0 60,0 65,0 70,0 75,0 80,0 85,0 90,0 95,0 100,0 105,0 110,0 115,0 120,0 125,1 130,0 135,0 140,0 145,0 150,1 155,0 160,0 165,2 170,3 175,5 180,1 185,1 190,2 195,0 200,15 205,33 210,19 215,10 220,9 225,3 230,15 235,0 240,13 245,10 250,28 255,0 260,0 265,0 270,2 275,6 280,0 285,0 290,0 295,0 300,0 305,0 310,0 315,0 320,0 325,0 330,0 335,0 340,2 345,0 350,0 355,0 360,0 365,0 370,0 375,0 380,10 385,2 390,7 395,0 400,18 405,2 410,11 415,28 420,1 425,0 430,0 435,0 440,0 445,1 450,0 455,5 460,6 465,0 470,0 475,0 480,0"/>

<polyline stroke="white" stroke-width="3" fill="black" transform="matrix(1 0 0 -1 0 961)" points="0,0 0,1 5,2 10,1 15,2 20,0 25,0 30,0 35,1 40,13 45,10 50,0 55,2 60,0 65,3 70,1 75,0 80,0 85,0 90,0 95,0 100,3 105,20 110,6 115,4 120,3 125,0 130,2 135,0 140,5 145,0 150,0 155,4 160,2 165,1 170,0 175,0 180,0 185,11 190,4 195,1 200,1 205,2 210,0 215,1 220,0 225,8 230,3 235,18 240,17 245,17 250,6 255,11 260,14 265,3 270,10 275,13 280,23 285,2 290,8 295,33 300,42 305,28 310,6 315,1 320,3 325,0 330,1 335,9 340,0 345,2 350,0 355,2 360,4 365,0 370,0 375,0 380,3 385,2 390,0 395,0 400,0 405,0 410,2 415,45 420,8 425,0 430,0 435,0 440,0 445,0 450,0 455,0 460,0 465,0 470,0 475,0 480,0"/>

<polyline stroke="white" stroke-width="3" fill="black" transform="matrix(1 0 0 -1 0 971)" points="0,0 0,4 5,1 10,1 15,0 20,2 25,0 30,1 35,0 40,0 45,2 50,47 55,17 60,2 65,0 70,0 75,0 80,0 85,0 90,0 95,1 100,1 105,4 110,1 115,0 120,1 125,0 130,0 135,0 140,0 145,0 150,2 155,5 160,0 165,0 170,2 175,0 180,7 185,7 190,6 195,18 200,2 205,0 210,2 215,0 220,0 225,9 230,4 235,27 240,9 245,11 250,0 255,15 260,29 265,18 270,2 275,24 280,10 285,1 290,1 295,2 300,2 305,3 310,15 315,36 320,13 325,27 330,29 335,9 340,3 345,9 350,6 355,7 360,38 365,29 370,19 375,76 380,32 385,22 390,53 395,40 400,5 405,6 410,2 415,3 420,1 425,0 430,0 435,23 440,11 445,13 450,2 455,0 460,0 465,0 470,3 475,2 480,0"/>

<polyline stroke="white" stroke-width="3" fill="black" transform="matrix(1 0 0 -1 0 981)" points="0,0 0,0 5,5 10,1 15,0 20,0 25,0 30,0 35,2 40,0 45,1 50,0 55,0 60,0 65,0 70,0 75,0 80,0 85,0 90,0 95,3 100,0 105,0 110,0 115,0 120,1 125,0 130,1 135,4 140,0 145,3 150,15 155,1 160,1 165,4 170,0 175,1 180,1 185,4 190,4 195,4 200,3 205,23 210,4 215,0 220,1 225,4 230,7 235,1 240,5 245,7 250,29 255,42 260,9 265,2 270,62 275,54 280,45 285,55 290,9 295,5 300,24 305,6 310,6 315,38 320,27 325,16 330,9 335,23 340,10 345,30 350,22 355,0 360,0 365,2 370,0 375,45 380,36 385,23 390,5 395,7 400,3 405,17 410,34 415,35 420,31 425,9 430,12 435,0 440,0 445,0 450,0 455,0 460,1 465,0 470,0 475,3 480,0"/>

<polyline stroke="white" stroke-width="3" fill="black" transform="matrix(1 0 0 -1 0 991)" points="0,0 0,31 5,20 10,39 15,6 20,0 25,0 30,0 35,0 40,2 45,2 50,3 55,0 60,0 65,0 70,2 75,0 80,1 85,0 90,0 95,0 100,0 105,3 110,0 115,1 120,4 125,2 130,0 135,0 140,0 145,0 150,1 155,0 160,3 165,8 170,0 175,6 180,17 185,2 190,8 195,7 200,0 205,7 210,2 215,28 220,12 225,2 230,12 235,5 240,3 245,19 250,0 255,2 260,1 265,16 270,32 275,19 280,40 285,2 290,16 295,4 300,3 305,1 310,0 315,2 320,25 325,42 330,7 335,1 340,39 345,14 350,35 355,59 360,30 365,2 370,1 375,3 380,6 385,5 390,0 395,0 400,1 405,0 410,7 415,0 420,1 425,0 430,14 435,5 440,3 445,3 450,3 455,0 460,0 465,0 470,0 475,1 480,0"/>

<polyline stroke="white" stroke-width="3" fill="black" transform="matrix(1 0 0 -1 0 1001)" points="0,0 0,0 5,0 10,3 15,0 20,0 25,1 30,0 35,0 40,0 45,0 50,0 55,0 60,0 65,0 70,0 75,0 80,0 85,0 90,0 95,0 100,0 105,4 110,5 115,0 120,2 125,14 130,4 135,4 140,0 145,0 150,0 155,0 160,11 165,9 170,7 175,4 180,4 185,8 190,2 195,3 200,1 205,15 210,1 215,0 220,9 225,17 230,18 235,3 240,0 245,0 250,1 255,0 260,0 265,0 270,9 275,6 280,3 285,0 290,5 295,0 300,9 305,7 310,2 315,16 320,40 325,60 330,39 335,48 340,26 345,7 350,5 355,0 360,5 365,1 370,0 375,10 380,14 385,10 390,9 395,0 400,2 405,0 410,2 415,0 420,5 425,3 430,3 435,4 440,0 445,0 450,5 455,1 460,0 465,2 470,0 475,0 480,0"/>
<text x="240"  y="1040" fill="white" font-size="30px" text-anchor="middle" font-family="Roboto, sans-serif">INDIE PLEASURES</text>

</svg>