<svg xmlns="http://www.w3.org/2000/svg" xmlns:xlink="http://www.w3.org/1999/xlink" xmlns:ev="http://www.w3.org/2001/xml-events" version="1.1" baseProfile="full" width="100%" height="100%" viewBox="0 5 100 95" preserveAspectRatio="none">
  <script><![CDATA[
    function draw() {
        var parts = [], mx = 0, mn = 999999;
        location.search.substr(1).split(",").forEach(function(n) {
            var integ = parseInt(n, 10);
            parts.push(integ);
            mx = Math.max(mx, integ);
            mn = Math.min(mn, integ);
        });
        svgRoot = document.getElementsByTagName("svg")[0]
        var ln = document.createElementNS ("http://www.w3.org/2000/svg", "polyline");
        for (var i=0; i<parts.length; i++) {
            var pt = svgRoot.createSVGPoint();
            pt.x = i;
            pt.y = parts[i];
            ln.points.appendItem(pt);
        }
        ln.setAttribute("stroke", "rgba(0,0,0,1)");
        ln.setAttribute("stroke-width", ".5%");
        ln.setAttribute("fill","none");
        var height = mx-mn; 
        var width = parts.length-1;
        var offset = height+mn*2; // flip co-ordinates and move back into frame
        ln.setAttribute("transform","matrix(1 0 0 -1 0 " + offset +")");
        svgRoot.appendChild(ln);
        svgRoot.setAttribute("viewBox","0 " + mn +" "+ width + " " + height);
        svgRoot.setAttribute("preserveAspectRatio","none");
    }   
     
  ]]></script>
<polyline stroke="rgba(0,0,0,1)" stroke-width=".25%" fill="none" transform="matrix(1 0 0 -1 0 105)" points="0,59 1,80 2,80 3,100 4,68 5,62 6,87 7,72 8,42 9,49 10,58 11,53 12,57 13,51 14,42 15,32 16,37 17,30 18,24 19,38 20,57 21,29 22,18 23,32 24,38 25,24 26,24 27,24 28,20 29,21 30,29 31,32 32,26 33,18 34,32 35,36 36,30 37,36 38,29 39,32 40,29 41,28 42,41 43,20 44,28 45,58 46,18 47,24 48,16 49,17 50,22 51,17 52,22 53,21 54,12 55,22 56,14 57,13 58,11 59,20 60,16 61,16 62,18 63,12 64,28 65,28 66,32 67,16 68,16 69,24 70,16 71,20 72,14 73,18 74,12 75,26 76,17 77,11 78,30 79,16 80,9 81,20 82,42 83,13 84,13 85,24 86,17 87,13 88,20 89,12 90,14 91,13 92,14 93,71 94,82 95,20 96,16 97,20 98,22 99,17 100,5"/></svg>