<svg xmlns="http://www.w3.org/2000/svg" xmlns:xlink="http://www.w3.org/1999/xlink" xmlns:ev="http://www.w3.org/2001/xml-events" version="1.1" baseProfile="full" width="100%" height="100%">
<script><![CDATA[
function scale(e,t,n){return 100*(n-t)/(e-t)||0}function draw(){var e=document.getElementsByTagName("svg")[0],t=2,n=location.search.substr(1),r=n.split("&"),i=r[0].split(",").map(function(e){return parseFloat(e,10)||0}),s=96,o="rgba(0,0,0,0.5)",u=Math.max.apply(null,i),a=Math.min.apply(null,i);var f=i.map(function(e){return scale(u,a,e)}),l=100/f.length,c=0,h=0,p=l/2,d=s-f[0];for(var v=0;v<f.length;v++){var m=document.createElementNS("http://www.w3.org/2000/svg","line");c=p;h=d;p=s*(v/f.length)+l/2;d=s-f[v];m.setAttribute("x1",c+"%");m.setAttribute("x2",p+"%");m.setAttribute("y1",h+"%");m.setAttribute("y2",d+"%");m.setAttribute("stroke",o);m.setAttribute("stroke-width","1");e.appendChild(m)}}if(typeof Array.prototype.map!=="function"){Array.prototype.map=function(e){for(var t=this,n=t.length,r=[],i=0,s;i<t;)r[i]=i in t?e.call(arguments[1],t[i],i++,t):s;return r}}
]]></script>
<line x1="0.49504950495049505%" x2="0.49504950495049505%" y1="39.1578947368421%" y2="39.1578947368421%" stroke="rgba(0,0,0,0.5)" stroke-width="1"/><line x1="0.49504950495049505%" x2="1.4455445544554455%" y1="39.1578947368421%" y2="17.05263157894737%" stroke="rgba(0,0,0,0.5)" stroke-width="1"/><line x1="1.4455445544554455%" x2="2.396039603960396%" y1="17.05263157894737%" y2="17.05263157894737%" stroke="rgba(0,0,0,0.5)" stroke-width="1"/><line x1="2.396039603960396%" x2="3.3465346534653464%" y1="17.05263157894737%" y2="-4%" stroke="rgba(0,0,0,0.5)" stroke-width="1"/><line x1="3.3465346534653464%" x2="4.297029702970297%" y1="-4%" y2="29.684210526315795%" stroke="rgba(0,0,0,0.5)" stroke-width="1"/><line x1="4.297029702970297%" x2="5.247524752475249%" y1="29.684210526315795%" y2="36%" stroke="rgba(0,0,0,0.5)" stroke-width="1"/><line x1="5.247524752475249%" x2="6.198019801980198%" y1="36%" y2="9.684210526315795%" stroke="rgba(0,0,0,0.5)" stroke-width="1"/><line x1="6.198019801980198%" x2="7.1485148514851495%" y1="9.684210526315795%" y2="25.473684210526315%" stroke="rgba(0,0,0,0.5)" stroke-width="1"/><line x1="7.1485148514851495%" x2="8.099009900990099%" y1="25.473684210526315%" y2="57.05263157894737%" stroke="rgba(0,0,0,0.5)" stroke-width="1"/><line x1="8.099009900990099%" x2="9.04950495049505%" y1="57.05263157894737%" y2="49.68421052631579%" stroke="rgba(0,0,0,0.5)" stroke-width="1"/><line x1="9.04950495049505%" x2="10.000000000000002%" y1="49.68421052631579%" y2="40.21052631578947%" stroke="rgba(0,0,0,0.5)" stroke-width="1"/><line x1="10.000000000000002%" x2="10.950495049504951%" y1="40.21052631578947%" y2="45.473684210526315%" stroke="rgba(0,0,0,0.5)" stroke-width="1"/><line x1="10.950495049504951%" x2="11.900990099009901%" y1="45.473684210526315%" y2="41.26315789473684%" stroke="rgba(0,0,0,0.5)" stroke-width="1"/><line x1="11.900990099009901%" x2="12.851485148514852%" y1="41.26315789473684%" y2="47.578947368421055%" stroke="rgba(0,0,0,0.5)" stroke-width="1"/><line x1="12.851485148514852%" x2="13.801980198019804%" y1="47.578947368421055%" y2="57.05263157894737%" stroke="rgba(0,0,0,0.5)" stroke-width="1"/><line x1="13.801980198019804%" x2="14.752475247524751%" y1="57.05263157894737%" y2="67.57894736842105%" stroke="rgba(0,0,0,0.5)" stroke-width="1"/><line x1="14.752475247524751%" x2="15.702970297029703%" y1="67.57894736842105%" y2="62.31578947368421%" stroke="rgba(0,0,0,0.5)" stroke-width="1"/><line x1="15.702970297029703%" x2="16.653465346534652%" y1="62.31578947368421%" y2="69.6842105263158%" stroke="rgba(0,0,0,0.5)" stroke-width="1"/><line x1="16.653465346534652%" x2="17.603960396039604%" y1="69.6842105263158%" y2="76%" stroke="rgba(0,0,0,0.5)" stroke-width="1"/><line x1="17.603960396039604%" x2="18.554455445544555%" y1="76%" y2="61.26315789473684%" stroke="rgba(0,0,0,0.5)" stroke-width="1"/><line x1="18.554455445544555%" x2="19.504950495049506%" y1="61.26315789473684%" y2="41.26315789473684%" stroke="rgba(0,0,0,0.5)" stroke-width="1"/><line x1="19.504950495049506%" x2="20.455445544554454%" y1="41.26315789473684%" y2="70.73684210526315%" stroke="rgba(0,0,0,0.5)" stroke-width="1"/><line x1="20.455445544554454%" x2="21.405940594059405%" y1="70.73684210526315%" y2="82.3157894736842%" stroke="rgba(0,0,0,0.5)" stroke-width="1"/><line x1="21.405940594059405%" x2="22.356435643564357%" y1="82.3157894736842%" y2="67.57894736842105%" stroke="rgba(0,0,0,0.5)" stroke-width="1"/><line x1="22.356435643564357%" x2="23.306930693069305%" y1="67.57894736842105%" y2="61.26315789473684%" stroke="rgba(0,0,0,0.5)" stroke-width="1"/><line x1="23.306930693069305%" x2="24.257425742574256%" y1="61.26315789473684%" y2="76%" stroke="rgba(0,0,0,0.5)" stroke-width="1"/><line x1="24.257425742574256%" x2="25.207920792079207%" y1="76%" y2="76%" stroke="rgba(0,0,0,0.5)" stroke-width="1"/><line x1="25.207920792079207%" x2="26.15841584158416%" y1="76%" y2="76%" stroke="rgba(0,0,0,0.5)" stroke-width="1"/><line x1="26.15841584158416%" x2="27.10891089108911%" y1="76%" y2="80.21052631578948%" stroke="rgba(0,0,0,0.5)" stroke-width="1"/><line x1="27.10891089108911%" x2="28.059405940594054%" y1="80.21052631578948%" y2="79.15789473684211%" stroke="rgba(0,0,0,0.5)" stroke-width="1"/><line x1="28.059405940594054%" x2="29.009900990099005%" y1="79.15789473684211%" y2="70.73684210526315%" stroke="rgba(0,0,0,0.5)" stroke-width="1"/><line x1="29.009900990099005%" x2="29.960396039603957%" y1="70.73684210526315%" y2="67.57894736842105%" stroke="rgba(0,0,0,0.5)" stroke-width="1"/><line x1="29.960396039603957%" x2="30.910891089108908%" y1="67.57894736842105%" y2="73.89473684210526%" stroke="rgba(0,0,0,0.5)" stroke-width="1"/><line x1="30.910891089108908%" x2="31.86138613861386%" y1="73.89473684210526%" y2="82.3157894736842%" stroke="rgba(0,0,0,0.5)" stroke-width="1"/><line x1="31.86138613861386%" x2="32.81188118811881%" y1="82.3157894736842%" y2="67.57894736842105%" stroke="rgba(0,0,0,0.5)" stroke-width="1"/><line x1="32.81188118811881%" x2="33.76237623762376%" y1="67.57894736842105%" y2="63.36842105263158%" stroke="rgba(0,0,0,0.5)" stroke-width="1"/><line x1="33.76237623762376%" x2="34.71287128712871%" y1="63.36842105263158%" y2="69.6842105263158%" stroke="rgba(0,0,0,0.5)" stroke-width="1"/><line x1="34.71287128712871%" x2="35.663366336633665%" y1="69.6842105263158%" y2="63.36842105263158%" stroke="rgba(0,0,0,0.5)" stroke-width="1"/><line x1="35.663366336633665%" x2="36.613861386138616%" y1="63.36842105263158%" y2="70.73684210526315%" stroke="rgba(0,0,0,0.5)" stroke-width="1"/><line x1="36.613861386138616%" x2="37.56435643564357%" y1="70.73684210526315%" y2="67.57894736842105%" stroke="rgba(0,0,0,0.5)" stroke-width="1"/><line x1="37.56435643564357%" x2="38.51485148514852%" y1="67.57894736842105%" y2="70.73684210526315%" stroke="rgba(0,0,0,0.5)" stroke-width="1"/><line x1="38.51485148514852%" x2="39.46534653465347%" y1="70.73684210526315%" y2="71.78947368421052%" stroke="rgba(0,0,0,0.5)" stroke-width="1"/><line x1="39.46534653465347%" x2="40.415841584158414%" y1="71.78947368421052%" y2="58.10526315789474%" stroke="rgba(0,0,0,0.5)" stroke-width="1"/><line x1="40.415841584158414%" x2="41.366336633663366%" y1="58.10526315789474%" y2="80.21052631578948%" stroke="rgba(0,0,0,0.5)" stroke-width="1"/><line x1="41.366336633663366%" x2="42.31683168316832%" y1="80.21052631578948%" y2="71.78947368421052%" stroke="rgba(0,0,0,0.5)" stroke-width="1"/><line x1="42.31683168316832%" x2="43.26732673267327%" y1="71.78947368421052%" y2="40.21052631578947%" stroke="rgba(0,0,0,0.5)" stroke-width="1"/><line x1="43.26732673267327%" x2="44.21782178217822%" y1="40.21052631578947%" y2="82.3157894736842%" stroke="rgba(0,0,0,0.5)" stroke-width="1"/><line x1="44.21782178217822%" x2="45.16831683168317%" y1="82.3157894736842%" y2="76%" stroke="rgba(0,0,0,0.5)" stroke-width="1"/><line x1="45.16831683168317%" x2="46.118811881188115%" y1="76%" y2="84.42105263157895%" stroke="rgba(0,0,0,0.5)" stroke-width="1"/><line x1="46.118811881188115%" x2="47.06930693069307%" y1="84.42105263157895%" y2="83.36842105263158%" stroke="rgba(0,0,0,0.5)" stroke-width="1"/><line x1="47.06930693069307%" x2="48.01980198019802%" y1="83.36842105263158%" y2="78.10526315789474%" stroke="rgba(0,0,0,0.5)" stroke-width="1"/><line x1="48.01980198019802%" x2="48.97029702970297%" y1="78.10526315789474%" y2="83.36842105263158%" stroke="rgba(0,0,0,0.5)" stroke-width="1"/><line x1="48.97029702970297%" x2="49.92079207920792%" y1="83.36842105263158%" y2="78.10526315789474%" stroke="rgba(0,0,0,0.5)" stroke-width="1"/><line x1="49.92079207920792%" x2="50.87128712871287%" y1="78.10526315789474%" y2="79.15789473684211%" stroke="rgba(0,0,0,0.5)" stroke-width="1"/><line x1="50.87128712871287%" x2="51.82178217821782%" y1="79.15789473684211%" y2="88.63157894736842%" stroke="rgba(0,0,0,0.5)" stroke-width="1"/><line x1="51.82178217821782%" x2="52.772277227722775%" y1="88.63157894736842%" y2="78.10526315789474%" stroke="rgba(0,0,0,0.5)" stroke-width="1"/><line x1="52.772277227722775%" x2="53.722772277227726%" y1="78.10526315789474%" y2="86.52631578947368%" stroke="rgba(0,0,0,0.5)" stroke-width="1"/><line x1="53.722772277227726%" x2="54.67326732673266%" y1="86.52631578947368%" y2="87.57894736842105%" stroke="rgba(0,0,0,0.5)" stroke-width="1"/><line x1="54.67326732673266%" x2="55.623762376237615%" y1="87.57894736842105%" y2="89.6842105263158%" stroke="rgba(0,0,0,0.5)" stroke-width="1"/><line x1="55.623762376237615%" x2="56.574257425742566%" y1="89.6842105263158%" y2="80.21052631578948%" stroke="rgba(0,0,0,0.5)" stroke-width="1"/><line x1="56.574257425742566%" x2="57.52475247524752%" y1="80.21052631578948%" y2="84.42105263157895%" stroke="rgba(0,0,0,0.5)" stroke-width="1"/><line x1="57.52475247524752%" x2="58.47524752475247%" y1="84.42105263157895%" y2="84.42105263157895%" stroke="rgba(0,0,0,0.5)" stroke-width="1"/><line x1="58.47524752475247%" x2="59.42574257425742%" y1="84.42105263157895%" y2="82.3157894736842%" stroke="rgba(0,0,0,0.5)" stroke-width="1"/><line x1="59.42574257425742%" x2="60.37623762376237%" y1="82.3157894736842%" y2="88.63157894736842%" stroke="rgba(0,0,0,0.5)" stroke-width="1"/><line x1="60.37623762376237%" x2="61.32673267326732%" y1="88.63157894736842%" y2="71.78947368421052%" stroke="rgba(0,0,0,0.5)" stroke-width="1"/><line x1="61.32673267326732%" x2="62.277227722772274%" y1="71.78947368421052%" y2="71.78947368421052%" stroke="rgba(0,0,0,0.5)" stroke-width="1"/><line x1="62.277227722772274%" x2="63.227722772277225%" y1="71.78947368421052%" y2="67.57894736842105%" stroke="rgba(0,0,0,0.5)" stroke-width="1"/><line x1="63.227722772277225%" x2="64.17821782178218%" y1="67.57894736842105%" y2="84.42105263157895%" stroke="rgba(0,0,0,0.5)" stroke-width="1"/><line x1="64.17821782178218%" x2="65.12871287128714%" y1="84.42105263157895%" y2="84.42105263157895%" stroke="rgba(0,0,0,0.5)" stroke-width="1"/><line x1="65.12871287128714%" x2="66.07920792079209%" y1="84.42105263157895%" y2="76%" stroke="rgba(0,0,0,0.5)" stroke-width="1"/><line x1="66.07920792079209%" x2="67.02970297029704%" y1="76%" y2="84.42105263157895%" stroke="rgba(0,0,0,0.5)" stroke-width="1"/><line x1="67.02970297029704%" x2="67.98019801980199%" y1="84.42105263157895%" y2="80.21052631578948%" stroke="rgba(0,0,0,0.5)" stroke-width="1"/><line x1="67.98019801980199%" x2="68.93069306930694%" y1="80.21052631578948%" y2="86.52631578947368%" stroke="rgba(0,0,0,0.5)" stroke-width="1"/><line x1="68.93069306930694%" x2="69.88118811881189%" y1="86.52631578947368%" y2="82.3157894736842%" stroke="rgba(0,0,0,0.5)" stroke-width="1"/><line x1="69.88118811881189%" x2="70.83168316831684%" y1="82.3157894736842%" y2="88.63157894736842%" stroke="rgba(0,0,0,0.5)" stroke-width="1"/><line x1="70.83168316831684%" x2="71.7821782178218%" y1="88.63157894736842%" y2="73.89473684210526%" stroke="rgba(0,0,0,0.5)" stroke-width="1"/><line x1="71.7821782178218%" x2="72.73267326732675%" y1="73.89473684210526%" y2="83.36842105263158%" stroke="rgba(0,0,0,0.5)" stroke-width="1"/><line x1="72.73267326732675%" x2="73.6831683168317%" y1="83.36842105263158%" y2="89.6842105263158%" stroke="rgba(0,0,0,0.5)" stroke-width="1"/><line x1="73.6831683168317%" x2="74.63366336633665%" y1="89.6842105263158%" y2="69.6842105263158%" stroke="rgba(0,0,0,0.5)" stroke-width="1"/><line x1="74.63366336633665%" x2="75.5841584158416%" y1="69.6842105263158%" y2="84.42105263157895%" stroke="rgba(0,0,0,0.5)" stroke-width="1"/><line x1="75.5841584158416%" x2="76.53465346534655%" y1="84.42105263157895%" y2="91.78947368421052%" stroke="rgba(0,0,0,0.5)" stroke-width="1"/><line x1="76.53465346534655%" x2="77.4851485148515%" y1="91.78947368421052%" y2="80.21052631578948%" stroke="rgba(0,0,0,0.5)" stroke-width="1"/><line x1="77.4851485148515%" x2="78.43564356435645%" y1="80.21052631578948%" y2="57.05263157894737%" stroke="rgba(0,0,0,0.5)" stroke-width="1"/><line x1="78.43564356435645%" x2="79.38613861386139%" y1="57.05263157894737%" y2="87.57894736842105%" stroke="rgba(0,0,0,0.5)" stroke-width="1"/><line x1="79.38613861386139%" x2="80.33663366336634%" y1="87.57894736842105%" y2="87.57894736842105%" stroke="rgba(0,0,0,0.5)" stroke-width="1"/><line x1="80.33663366336634%" x2="81.2871287128713%" y1="87.57894736842105%" y2="76%" stroke="rgba(0,0,0,0.5)" stroke-width="1"/><line x1="81.2871287128713%" x2="82.23762376237624%" y1="76%" y2="83.36842105263158%" stroke="rgba(0,0,0,0.5)" stroke-width="1"/><line x1="82.23762376237624%" x2="83.1881188118812%" y1="83.36842105263158%" y2="87.57894736842105%" stroke="rgba(0,0,0,0.5)" stroke-width="1"/><line x1="83.1881188118812%" x2="84.13861386138615%" y1="87.57894736842105%" y2="80.21052631578948%" stroke="rgba(0,0,0,0.5)" stroke-width="1"/><line x1="84.13861386138615%" x2="85.0891089108911%" y1="80.21052631578948%" y2="88.63157894736842%" stroke="rgba(0,0,0,0.5)" stroke-width="1"/><line x1="85.0891089108911%" x2="86.03960396039605%" y1="88.63157894736842%" y2="86.52631578947368%" stroke="rgba(0,0,0,0.5)" stroke-width="1"/><line x1="86.03960396039605%" x2="86.990099009901%" y1="86.52631578947368%" y2="87.57894736842105%" stroke="rgba(0,0,0,0.5)" stroke-width="1"/><line x1="86.990099009901%" x2="87.94059405940595%" y1="87.57894736842105%" y2="86.52631578947368%" stroke="rgba(0,0,0,0.5)" stroke-width="1"/><line x1="87.94059405940595%" x2="88.8910891089109%" y1="86.52631578947368%" y2="26.526315789473685%" stroke="rgba(0,0,0,0.5)" stroke-width="1"/><line x1="88.8910891089109%" x2="89.84158415841586%" y1="26.526315789473685%" y2="14.94736842105263%" stroke="rgba(0,0,0,0.5)" stroke-width="1"/><line x1="89.84158415841586%" x2="90.79207920792079%" y1="14.94736842105263%" y2="80.21052631578948%" stroke="rgba(0,0,0,0.5)" stroke-width="1"/><line x1="90.79207920792079%" x2="91.74257425742574%" y1="80.21052631578948%" y2="84.42105263157895%" stroke="rgba(0,0,0,0.5)" stroke-width="1"/><line x1="91.74257425742574%" x2="92.6930693069307%" y1="84.42105263157895%" y2="80.21052631578948%" stroke="rgba(0,0,0,0.5)" stroke-width="1"/><line x1="92.6930693069307%" x2="93.64356435643565%" y1="80.21052631578948%" y2="78.10526315789474%" stroke="rgba(0,0,0,0.5)" stroke-width="1"/><line x1="93.64356435643565%" x2="94.5940594059406%" y1="78.10526315789474%" y2="83.36842105263158%" stroke="rgba(0,0,0,0.5)" stroke-width="1"/><line x1="94.5940594059406%" x2="95.54455445544555%" y1="83.36842105263158%" y2="96%" stroke="rgba(0,0,0,0.5)" stroke-width="1"/></svg>