<svg xmlns="http://www.w3.org/2000/svg" xmlns:xlink="http://www.w3.org/1999/xlink" width="116pt" height="32" viewBox="0 0 116 24">
  <defs>
    <symbol overflow="visible" id="a">
      <path d="M1.03 21.703c.33-.015.5-.234.5-.484 0-.33-.25-.5-.483-.5-.234 0-.484.15-.484.5 0 .51.5.93 1.11.93 1.514 0 2.077-2.35 2.78-5.24.766-3.14 1.422-6.33 1.953-9.53.374-2.1.734-4.1 1.078-5.38.125-.5.454-1.78.844-1.78.313 0 .563.18.61.23-.33.012-.5.23-.5.48 0 .33.25.485.468.485.25 0 .5-.14.5-.5C9.406.392 8.86 0 8.312 0 7.562 0 7 1.094 6.452 3.125c-.03.11-1.39 5.11-2.483 11.625-.27 1.53-.55 3.188-.88 4.578-.19.735-.64 2.61-1.46 2.61-.36 0-.6-.235-.61-.235zm0 0"/>
    </symbol>
    <symbol overflow="visible" id="j">
      <path d="M1.03 21.703c.33-.015.5-.234.5-.484 0-.33-.25-.5-.483-.5-.234 0-.484.15-.484.5 0 .51.5.93 1.11.93 1.53 0 2.108-2.42 2.874-5.63.14-.61.5-2.14.64-2.77 1.5 0 2.688-1.22 2.688-2.69 0-.766-.344-1.923-1.672-2.5.313-1.78.61-3.61.984-5.345C7.407 2.232 7.844.2 8.327.2c.314 0 .564.185.61.23-.328.018-.5.236-.5.486 0 .33.25.486.47.486.25 0 .5-.14.5-.5 0-.53-.55-.92-1.097-.92-.78 0-1.328 1.17-1.86 3.125-.218.816-.56 2.25-.624 2.5-.14.61-.5 2.14-.64 2.77-1.5 0-2.688 1.205-2.688 2.69 0 .75.344 1.92 1.672 2.484-.422 2.53-.766 4.488-1.078 5.707-.172.74-.625 2.68-1.452 2.68-.36 0-.594-.24-.61-.24zm3.204-8.547c-.796-.36-1.328-1.156-1.328-2.078 0-1.125.828-2.22 2.203-2.297zM6.14 8.984c.782.36 1.344 1.157 1.344 2.094 0 1.125-.843 2.203-2.203 2.297zm0 0"/>
    </symbol>
    <symbol overflow="visible" id="b">
      <path d="M2.906-2.266c.078-.062.078-.078.078-.125 0-.04-.046-.08-.046-.1L1.375-4.52h1.75c1.156 0 1.656.17 1.828 1.36h.234L4.97-4.77H.682c-.172 0-.204.016-.204.188l1.91 2.486L.58-.234C.5-.14.484-.14.484-.094.484 0 .578 0 .688 0h4.28l.22-1.688h-.235c-.156 1.22-.766 1.282-1.266 1.33-.234.014-.28.03-.578.03H1.03zm0 0"/>
    </symbol>
    <symbol overflow="visible" id="c">
      <path d="M7.78-6.594c.017-.03.048-.093.048-.14 0-.063-.016-.08-.234-.08l-6.89.002c-.22 0-.235.015-.235.078 0 .046.03.11.04.14L3.87.14c.08.126.11.188.27.188.175 0 .206-.062.284-.187zm-6.077.5h5.47L4.453-.61zm0 0"/>
    </symbol>
    <symbol overflow="visible" id="d">
      <path d="M3.875-2.766L1.89-4.75c-.124-.125-.14-.14-.218-.14-.11 0-.203.077-.203.202 0 .063.01.08.12.188l2 2-2 2.016c-.11.11-.13.125-.13.187 0 .125.09.203.2.203.07 0 .09-.015.22-.14L3.87-2.22 5.938-.155c.015.015.078.062.14.062.125 0 .203-.078.203-.203 0-.016 0-.047-.03-.11C6.24-.42 4.66-1.983 4.16-2.5l1.828-1.813c.047-.062.204-.187.25-.25 0-.015.047-.062.047-.125 0-.125-.076-.203-.2-.203-.08 0-.11.03-.22.14zm0 0"/>
    </symbol>
    <symbol overflow="visible" id="f">
      <path d="M1.906-2.5c0-.28-.234-.516-.515-.516-.29 0-.53.235-.53.516 0 .297.24.53.53.53.29 0 .52-.233.52-.53zm0 0"/>
    </symbol>
    <symbol overflow="visible" id="e">
      <path d="M6.422-6.78H.392v.468H1.47V-.47H.39V0c.376-.03 1.39-.03 1.83-.03.483 0 1.56 0 2.014.03v-.47h-1.36v-2.686h.5c.97 0 1.048.422 1.048 1.156h.47v-2.797h-.47c0 .734-.078 1.172-1.047 1.172h-.5v-2.688H4.28c1.595 0 1.83.766 1.986 1.938h.468zm0 0"/>
    </symbol>
    <symbol overflow="visible" id="l">
      <path d="M2.03-3.36v-1.124l-1.655.078v.468c.61 0 .688 0 .688.39v3.08H.375V0c.344-.016.797-.03 1.25-.03C2-.03 2.64-.03 3 0v-.47h-.86v-1.75c0-.686.235-1.905 1.235-1.905 0 .016-.188.172-.188.453 0 .406.33.61.61.61.297 0 .61-.204.61-.61 0-.53-.532-.812-1.063-.812-.688 0-1.094.5-1.313 1.125zm0 0"/>
    </symbol>
    <symbol overflow="visible" id="g">
      <path d="M5.14-6.813s0-.11-.124-.11c-.157 0-1.094.095-1.266.11-.078.016-.14.063-.14.188s.093.125.234.125c.484 0 .5.063.5.172l-.032.203-.593 2.36c-.19-.376-.47-.64-.93-.64C1.63-4.405.4-2.937.4-1.485.403-.545.953.11 1.72.11c.202 0 .702-.05 1.297-.75.078.42.437.75.906.75.36 0 .58-.235.75-.547.16-.36.3-.97.3-.985 0-.11-.092-.11-.123-.11-.094 0-.11.048-.14.188-.173.64-.345 1.235-.75 1.235-.282 0-.298-.26-.298-.45 0-.25.015-.31.046-.48zM3.08-1.188c-.062.188-.062.204-.203.375-.438.547-.844.704-1.125.704-.5 0-.64-.54-.64-.93 0-.5.312-1.72.546-2.18.313-.58.75-.95 1.157-.95.64 0 .78.813.78.875 0 .063-.015.126-.03.17zm0 0"/>
    </symbol>
    <symbol overflow="visible" id="h">
      <path d="M3.703-3.25c.094-.094.094-.14.094-.156 0-.047-.03-.11-.063-.14L1.688-6.5h2.296c1.688 0 2.188.36 2.39 1.938h.25l-.28-2.25H.812c-.234 0-.25 0-.25.234l2.485 3.61-2.375 2.7c-.11.11-.11.126-.11.158 0 .11.11.11.25.11h5.532l.28-2.36h-.25c-.17 1.673-.857 1.94-2.42 1.94h-2.75zm0 0"/>
    </symbol>
    <symbol overflow="visible" id="i">
      <path d="M6.844-3.266c.156 0 .343 0 .343-.187 0-.203-.187-.203-.328-.203H.89c-.14 0-.328 0-.328.203 0 .187.188.187.33.187zm.015 1.938c.14 0 .32 0 .32-.203 0-.19-.19-.19-.35-.19H.89c-.14 0-.328 0-.328.19 0 .2.188.2.33.2zm0 0"/>
    </symbol>
    <symbol overflow="visible" id="k">
      <path d="M3.656-2.36c-.094-.406-.406-.812-1.062-.812-.985 0-1.78.72-2.03 1.36-.048.11-.14.39-.14.67C.42-.655.794.142 1.874.142c1.812 0 2.546-2.25 2.546-3.234 0-1.203-.78-1.875-1.72-1.875-1.14 0-1.45.907-1.45 1.11 0 .063.046.25.28.25.25 0 .39-.203.39-.374 0-.19-.14-.25-.265-.27.344-.53.922-.53 1.032-.53.53 0 1.14.32 1.14 1.32 0 .29-.03.54-.156 1.09zM1.89-.077c-.78 0-.874-.594-.874-.813 0-.266.187-.954.265-1.126.13-.328.55-.968 1.35-.968.67 0 .89.53.89.953 0 .46-.45 1.95-1.62 1.95zm0 0"/>
    </symbol>
  </defs>
  <use xlink:href="#a" x="-.527" y=".728"/>
  <use xlink:href="#b" x="5.008" y="23.363"/>
  <use xlink:href="#c" x="12.856" y="14.282"/>
  <use xlink:href="#d" x="23.368" y="14.282"/>
  <use xlink:href="#e" x="33.331" y="14.282"/>
  <use xlink:href="#f" x="42.754" y="14.282"/>
  <use xlink:href="#g" x="47.74" y="14.282"/>
  <use xlink:href="#h" x="52.924" y="14.282"/>
  <use xlink:href="#i" x="62.887" y="14.282"/>
  <use xlink:href="#j" x="73.399" y=".728"/>
  <use xlink:href="#k" x="78.934" y="23.363"/>
  <use xlink:href="#b" x="83.623" y="23.363"/>
  <use xlink:href="#e" x="91.462" y="14.282"/>
  <use xlink:href="#f" x="100.885" y="14.282"/>
  <use xlink:href="#g" x="105.871" y="14.282"/>
  <use xlink:href="#l" x="111.055" y="14.282"/>
</svg>
